<?xml version="1.0" encoding="UTF-8" standalone="no"?>
<svg
   xmlns:dc="http://purl.org/dc/elements/1.1/"
   xmlns:cc="http://creativecommons.org/ns#"
   xmlns:rdf="http://www.w3.org/1999/02/22-rdf-syntax-ns#"
   xmlns:svg="http://www.w3.org/2000/svg"
   xmlns="http://www.w3.org/2000/svg"
   xmlns:sodipodi="http://sodipodi.sourceforge.net/DTD/sodipodi-0.dtd"
   xmlns:inkscape="http://www.inkscape.org/namespaces/inkscape"
   inkscape:version="1.0 (4035a4fb49, 2020-05-01)"
   inkscape:export-ydpi="96"
   inkscape:export-xdpi="96"
   inkscape:export-filename="C:\Users\Mari\Documents\Studium\Master\HiWi IPP\spiral.png"
   sodipodi:docname="orga-spiral.svg"
   viewBox="0 0 993.93066 941.15869"
   height="941.15869"
   width="993.93066"
   xml:space="preserve"
   id="svg10"
   version="1.1"><metadata
     id="metadata16"><rdf:RDF><cc:Work
         rdf:about=""><dc:format>image/svg+xml</dc:format><dc:type
           rdf:resource="http://purl.org/dc/dcmitype/StillImage" /><dc:title></dc:title></cc:Work></rdf:RDF></metadata><defs
     id="defs14"><clipPath
       id="clipPath26"
       clipPathUnits="userSpaceOnUse"><path
         id="path24"
         d="M 0,705.869 H 745.448 V 0 H 0 Z" /></clipPath><clipPath
       id="clipPath94"
       clipPathUnits="userSpaceOnUse"><path
         id="path92"
         d="M 0,705.869 H 745.448 V 0 H 0 Z" /></clipPath><clipPath
       id="clipPath114"
       clipPathUnits="userSpaceOnUse"><path
         id="path112"
         d="M 0,705.869 H 745.448 V 0 H 0 Z" /></clipPath><clipPath
       id="clipPath134"
       clipPathUnits="userSpaceOnUse"><path
         id="path132"
         d="M 0,705.869 H 745.448 V 0 H 0 Z" /></clipPath><clipPath
       id="clipPath156"
       clipPathUnits="userSpaceOnUse"><path
         id="path154"
         d="M 0,705.869 H 745.448 V 0 H 0 Z" /></clipPath><clipPath
       id="clipPath178"
       clipPathUnits="userSpaceOnUse"><path
         id="path176"
         d="M 0,705.869 H 745.448 V 0 H 0 Z" /></clipPath><clipPath
       id="clipPath198"
       clipPathUnits="userSpaceOnUse"><path
         id="path196"
         d="M 0,705.869 H 745.448 V 0 H 0 Z" /></clipPath><clipPath
       id="clipPath218"
       clipPathUnits="userSpaceOnUse"><path
         id="path216"
         d="M 0,705.869 H 745.448 V 0 H 0 Z" /></clipPath><clipPath
       id="clipPath234"
       clipPathUnits="userSpaceOnUse"><path
         id="path232"
         d="M 0,705.869 H 745.448 V 0 H 0 Z" /></clipPath><clipPath
       id="clipPath254"
       clipPathUnits="userSpaceOnUse"><path
         id="path252"
         d="M 0,705.869 H 745.448 V 0 H 0 Z" /></clipPath><clipPath
       id="clipPath276"
       clipPathUnits="userSpaceOnUse"><path
         id="path274"
         d="M 0,705.869 H 745.448 V 0 H 0 Z" /></clipPath><clipPath
       id="clipPath296"
       clipPathUnits="userSpaceOnUse"><path
         id="path294"
         d="M 0,705.869 H 745.448 V 0 H 0 Z" /></clipPath><clipPath
       id="clipPath316"
       clipPathUnits="userSpaceOnUse"><path
         id="path314"
         d="M 0,705.869 H 745.448 V 0 H 0 Z" /></clipPath><clipPath
       id="clipPath336"
       clipPathUnits="userSpaceOnUse"><path
         id="path334"
         d="M 0,705.869 H 745.448 V 0 H 0 Z" /></clipPath><clipPath
       id="clipPath356"
       clipPathUnits="userSpaceOnUse"><path
         id="path354"
         d="M 0,705.869 H 745.448 V 0 H 0 Z" /></clipPath><clipPath
       id="clipPath380"
       clipPathUnits="userSpaceOnUse"><path
         id="path378"
         d="M 0,705.869 H 745.448 V 0 H 0 Z" /></clipPath><clipPath
       id="clipPath402"
       clipPathUnits="userSpaceOnUse"><path
         id="path400"
         d="M 0,705.869 H 745.448 V 0 H 0 Z" /></clipPath><clipPath
       id="clipPath424"
       clipPathUnits="userSpaceOnUse"><path
         id="path422"
         d="M 0,705.869 H 745.448 V 0 H 0 Z" /></clipPath><clipPath
       id="clipPath460"
       clipPathUnits="userSpaceOnUse"><path
         id="path458"
         d="M 0,705.869 H 745.448 V 0 H 0 Z" /></clipPath><clipPath
       id="clipPath478"
       clipPathUnits="userSpaceOnUse"><path
         id="path476"
         d="M 0,705.869 H 745.448 V 0 H 0 Z" /></clipPath><clipPath
       id="clipPath498"
       clipPathUnits="userSpaceOnUse"><path
         id="path496"
         d="M 0,705.869 H 745.448 V 0 H 0 Z" /></clipPath></defs><sodipodi:namedview
     inkscape:current-layer="g18"
     inkscape:window-maximized="1"
     inkscape:window-y="-6"
     inkscape:window-x="-6"
     inkscape:cy="470.57935"
     inkscape:cx="481.52445"
     inkscape:zoom="0.68001285"
     showgrid="false"
     id="namedview12"
     inkscape:window-height="850"
     inkscape:window-width="1368"
     inkscape:pageshadow="2"
     inkscape:pageopacity="0"
     guidetolerance="10"
     gridtolerance="10"
     objecttolerance="10"
     borderopacity="1"
     bordercolor="#666666"
     pagecolor="#ffffff" /><g
     transform="matrix(1.3333333,0,0,-1.3333333,0,941.15867)"
     inkscape:label="orga-spiral (1)"
     inkscape:groupmode="layer"
     id="g18"><g
       id="g20"><g
         clip-path="url(#clipPath26)"
         id="g22"><g
           transform="translate(247.5493,373.4229)"
           id="g28"><path
             id="path30"
             style="fill:none;stroke:#0065bd;stroke-width:3;stroke-linecap:butt;stroke-linejoin:miter;stroke-miterlimit:10;stroke-dasharray:none;stroke-opacity:1;"
             d="M 0,0 H -247.549" /></g><g
           transform="translate(134.374,375.2568)"
           id="g32"><path
             id="path34"
             style="fill:none;stroke:#a8a8a7;stroke-width:12;stroke-linecap:butt;stroke-linejoin:miter;stroke-miterlimit:10;stroke-dasharray:none;stroke-opacity:1;"
             d="m 0,0 c 0,0 -0.023,1.515 -0.069,4.45 -0.022,2.938 -0.152,7.294 0.136,13.005 0.401,11.386 1.689,28.285 6.768,49.291 2.445,10.517 6.06,21.969 10.862,34.121 1.249,3.015 2.458,6.133 3.876,9.222 1.421,3.088 2.894,6.23 4.418,9.42 1.61,3.142 3.295,6.322 5.024,9.553 1.741,3.224 3.693,6.395 5.619,9.661 7.898,12.928 17.481,26.02 28.971,38.672 11.497,12.629 24.849,24.897 40.253,35.889 15.375,11.01 32.714,20.857 51.765,28.778 19.044,7.917 39.854,13.692 61.648,16.936 2.722,0.468 5.462,0.719 8.216,1.047 2.752,0.296 5.522,0.631 8.297,0.852 2.778,0.174 5.567,0.347 8.362,0.521 1.401,0.075 2.803,0.149 4.208,0.224 1.407,0.022 2.816,0.044 4.226,0.066 2.826,0.019 5.661,0.038 8.504,0.057 2.847,-0.046 5.71,-0.183 8.58,-0.298 5.744,-0.164 11.519,-0.791 17.331,-1.342 11.594,-1.405 23.329,-3.349 34.952,-6.383 1.456,-0.368 2.914,-0.737 4.374,-1.106 1.46,-0.368 2.896,-0.828 4.347,-1.246 2.892,-0.878 5.79,-1.759 8.695,-2.64 2.875,-0.973 5.742,-1.996 8.618,-3.025 1.435,-0.522 2.879,-1.027 4.307,-1.577 l 4.258,-1.727 c 22.769,-9.18 44.633,-21.815 64.629,-37.469 2.477,-1.982 4.949,-3.986 7.413,-6.011 2.435,-2.055 4.801,-4.199 7.191,-6.327 1.186,-1.074 2.393,-2.13 3.555,-3.233 l 3.452,-3.353 3.438,-3.384 c 1.149,-1.128 2.285,-2.269 3.375,-3.457 2.206,-2.351 4.401,-4.724 6.583,-7.115 2.161,-2.41 4.222,-4.915 6.319,-7.399 1.037,-1.25 2.093,-2.489 3.105,-3.763 l 2.985,-3.871 2.963,-3.901 c 0.99,-1.301 1.967,-2.613 2.889,-3.966 1.875,-2.684 3.735,-5.388 5.578,-8.109 1.818,-2.738 3.525,-5.556 5.266,-8.357 0.859,-1.409 1.74,-2.805 2.567,-4.235 l 2.428,-4.326 2.403,-4.352 c 0.805,-1.45 1.586,-2.913 2.314,-4.406 1.486,-2.97 2.954,-5.957 4.401,-8.958 1.414,-3.015 2.711,-6.092 4.041,-9.158 0.652,-1.538 1.33,-3.068 1.945,-4.624 l 1.79,-4.691 1.758,-4.712 c 0.588,-1.572 1.159,-3.15 1.663,-4.751 1.044,-3.191 2.066,-6.394 3.065,-9.609 0.977,-3.22 1.801,-6.483 2.674,-9.739 l 1.261,-4.9 1.081,-4.938 c 0.687,-3.3 1.443,-6.601 2.009,-9.924 2.405,-13.295 3.733,-26.75 4.281,-40.214 0.338,-13.465 -0.103,-27.048 -1.652,-40.601 -0.351,-3.388 -0.894,-6.761 -1.372,-10.141 l -0.768,-5.065 -0.951,-5.038 c -0.667,-3.352 -1.29,-6.72 -2.067,-10.051 -0.801,-3.326 -1.627,-6.648 -2.478,-9.965 -0.409,-1.664 -0.883,-3.308 -1.377,-4.946 l -1.479,-4.919 -1.515,-4.908 c -0.526,-1.629 -1.114,-3.235 -1.677,-4.851 -1.154,-3.221 -2.279,-6.458 -3.527,-9.643 -1.28,-3.17 -2.585,-6.332 -3.915,-9.483 -0.648,-1.584 -1.352,-3.14 -2.082,-4.683 l -2.178,-4.638 -2.213,-4.621 c -0.756,-1.53 -1.569,-3.027 -2.359,-4.539 -1.606,-3.007 -3.184,-6.036 -4.878,-8.99 -1.719,-2.938 -3.462,-5.863 -5.226,-8.774 -0.866,-1.466 -1.789,-2.893 -2.728,-4.31 l -2.81,-4.251 -2.842,-4.231 c -0.967,-1.394 -1.978,-2.753 -2.974,-4.127 -2.011,-2.729 -3.995,-5.484 -6.085,-8.147 -2.111,-2.644 -4.243,-5.274 -6.392,-7.887 -1.062,-1.318 -2.171,-2.59 -3.295,-3.85 l -3.369,-3.783 -3.396,-3.757 c -1.145,-1.239 -2.336,-2.431 -3.509,-3.641 -2.364,-2.402 -4.71,-4.822 -7.134,-7.155 -2.452,-2.304 -4.92,-4.589 -7.404,-6.854 -20.028,-17.918 -42.443,-32.942 -66.297,-44.423 l -4.467,-2.157 c -1.499,-0.694 -3.018,-1.342 -4.528,-2.006 -3.027,-1.313 -6.054,-2.618 -9.096,-3.871 -3.069,-1.181 -6.143,-2.34 -9.221,-3.473 -1.542,-0.556 -3.071,-1.153 -4.626,-1.658 -1.558,-0.504 -3.112,-1.008 -4.665,-1.512 -12.416,-4.113 -25.061,-7.084 -37.666,-9.447 -6.316,-1.029 -12.623,-2.118 -18.916,-2.722 -3.146,-0.335 -6.291,-0.689 -9.424,-0.946 -3.129,-0.208 -6.254,-0.393 -9.373,-0.557 -1.559,-0.077 -3.117,-0.154 -4.673,-0.231 -1.556,-0.021 -3.111,-0.043 -4.663,-0.064 -3.106,-0.031 -6.205,-0.042 -9.296,-0.031 -3.093,0.043 -6.186,0.207 -9.266,0.336 -3.082,0.162 -6.154,0.253 -9.216,0.566 -24.503,2.011 -48.33,6.965 -70.481,14.515 -22.16,7.551 -42.695,17.476 -61.189,28.969 -18.524,11.472 -34.918,24.62 -49.273,38.445 -14.349,13.845 -26.605,28.446 -36.924,43.083 -2.532,3.693 -5.073,7.302 -7.387,10.975 -2.303,3.682 -4.545,7.322 -6.695,10.93 -2.065,3.659 -4.062,7.276 -5.99,10.846 -1.923,3.57 -3.622,7.177 -5.344,10.684 -6.693,14.117 -11.918,27.596 -15.713,40.063 -7.781,24.915 -10.72,45.37 -12.133,59.205 -0.794,6.946 -1.012,12.263 -1.219,15.855 -0.177,3.593 -0.268,5.448 -0.268,5.448" /></g><g
           transform="translate(191.0669,375.0684)"
           id="g36"><path
             id="path38"
             style="fill:none;stroke:#a8a8a7;stroke-width:12;stroke-linecap:butt;stroke-linejoin:miter;stroke-miterlimit:10;stroke-dasharray:none;stroke-opacity:1;"
             d="m 0,0 c 0,0 -0.027,1.173 -0.081,3.445 -0.037,2.275 -0.196,5.655 -0.002,10.07 0.208,8.818 1.064,21.884 4.826,38.159 1.786,8.157 4.515,17.033 8.126,26.487 0.952,2.341 1.843,4.776 2.924,7.178 1.095,2.401 2.21,4.849 3.347,7.341 1.253,2.44 2.528,4.924 3.826,7.45 1.319,2.52 2.828,4.987 4.288,7.546 6.035,10.106 13.386,20.369 22.238,30.316 8.859,9.926 19.165,19.614 31.103,28.296 11.911,8.703 25.362,16.514 40.168,22.852 14.804,6.33 31.013,10.978 48.067,13.699 2.127,0.402 4.279,0.597 6.436,0.878 2.158,0.248 4.326,0.546 6.506,0.739 2.183,0.154 4.373,0.309 6.57,0.464 1.102,0.072 2.204,0.144 3.309,0.217 1.105,0.025 2.213,0.049 3.322,0.073 2.224,0.039 4.453,0.077 6.691,0.116 2.238,-0.016 4.486,-0.115 6.744,-0.18 4.519,-0.065 9.05,-0.551 13.623,-0.92 9.108,-1.038 18.343,-2.443 27.486,-4.76 l 3.445,-0.829 c 1.152,-0.275 2.279,-0.636 3.421,-0.954 2.28,-0.666 4.564,-1.334 6.854,-2.003 2.259,-0.773 4.523,-1.547 6.792,-2.323 1.132,-0.399 2.274,-0.779 3.401,-1.202 l 3.357,-1.335 c 17.979,-7.047 35.303,-16.857 51.214,-29.078 1.965,-1.562 3.933,-3.127 5.903,-4.694 1.939,-1.607 3.816,-3.294 5.725,-4.955 0.946,-0.841 1.913,-1.661 2.838,-2.527 l 2.748,-2.632 2.744,-2.65 c 0.921,-0.881 1.831,-1.774 2.696,-2.71 1.751,-1.859 3.504,-3.719 5.26,-5.582 1.728,-1.89 3.365,-3.866 5.046,-5.813 0.831,-0.983 1.68,-1.951 2.491,-2.952 l 2.381,-3.048 2.375,-3.066 c 0.797,-1.019 1.583,-2.05 2.316,-3.117 1.489,-2.124 2.981,-4.251 4.474,-6.379 1.459,-2.154 2.816,-4.379 4.22,-6.582 0.69,-1.109 1.406,-2.205 2.068,-3.332 l 1.945,-3.411 1.935,-3.427 c 0.652,-1.14 1.284,-2.292 1.863,-3.472 1.182,-2.352 2.365,-4.705 3.55,-7.061 1.14,-2.378 2.175,-4.809 3.256,-7.226 0.527,-1.213 1.082,-2.418 1.579,-3.646 l 1.441,-3.706 1.429,-3.72 c 0.481,-1.24 0.948,-2.485 1.35,-3.752 l 2.497,-7.594 c 0.799,-2.544 1.459,-5.129 2.18,-7.705 l 1.042,-3.875 0.882,-3.913 c 0.561,-2.615 1.203,-5.225 1.668,-7.862 2,-10.542 3.131,-21.24 3.679,-31.977 0.337,-10.736 0.094,-21.562 -1.05,-32.362 -0.25,-2.701 -0.68,-5.385 -1.032,-8.08 l -0.568,-4.039 -0.732,-4.014 c -0.516,-2.671 -0.974,-5.36 -1.574,-8.016 l -1.91,-7.949 c -0.306,-1.331 -0.676,-2.642 -1.064,-3.948 l -1.149,-3.926 -1.168,-3.923 c -0.405,-1.302 -0.872,-2.582 -1.31,-3.873 -0.904,-2.573 -1.768,-5.165 -2.742,-7.711 -1.022,-2.531 -2.042,-5.06 -3.063,-7.587 -0.501,-1.271 -1.054,-2.515 -1.632,-3.748 l -1.71,-3.713 -1.729,-3.707 c -0.592,-1.227 -1.239,-2.424 -1.86,-3.636 -1.269,-2.408 -2.497,-4.844 -3.832,-7.215 -1.375,-2.349 -2.75,-4.698 -4.123,-7.044 -0.677,-1.18 -1.409,-2.325 -2.153,-3.461 l -2.223,-3.416 -2.239,-3.406 c -0.764,-1.122 -1.571,-2.212 -2.358,-3.316 -1.597,-2.194 -3.156,-4.419 -4.814,-6.563 -1.691,-2.12 -3.38,-4.238 -5.068,-6.352 -0.837,-1.068 -1.72,-2.092 -2.616,-3.105 l -2.676,-3.049 -2.69,-3.036 c -0.909,-1.001 -1.862,-1.957 -2.793,-2.934 -1.882,-1.936 -3.741,-3.899 -5.668,-5.784 -1.967,-1.848 -3.931,-3.694 -5.892,-5.537 -15.945,-14.483 -33.82,-26.683 -52.885,-36.032 l -3.566,-1.766 c -1.197,-0.565 -2.414,-1.087 -3.622,-1.629 -2.421,-1.068 -4.839,-2.139 -7.271,-3.169 -2.465,-0.948 -4.925,-1.894 -7.379,-2.837 -1.234,-0.455 -2.454,-0.953 -3.7,-1.365 l -3.737,-1.235 c -9.936,-3.395 -20.08,-5.829 -30.198,-7.824 -5.078,-0.847 -10.14,-1.795 -15.209,-2.301 -2.533,-0.285 -5.063,-0.599 -7.587,-0.826 -2.529,-0.167 -5.048,-0.334 -7.561,-0.5 -1.258,-0.074 -2.514,-0.149 -3.769,-0.223 -1.257,-0.024 -2.511,-0.048 -3.764,-0.071 -2.509,-0.029 -5.011,-0.059 -7.504,-0.088 -2.496,0.015 -4.989,0.141 -7.475,0.223 -2.486,0.115 -4.969,0.149 -7.436,0.397 -19.762,1.487 -38.989,5.315 -56.899,11.278 -17.915,5.967 -34.562,13.858 -49.592,23.042 -15.058,9.164 -28.407,19.732 -40.123,30.853 -11.711,11.142 -21.737,22.914 -30.192,34.728 -2.065,2.986 -4.163,5.891 -6.056,8.86 -1.882,2.977 -3.725,5.915 -5.497,8.827 -1.687,2.961 -3.326,5.885 -4.918,8.768 -1.587,2.882 -2.968,5.806 -4.393,8.639 -5.501,11.419 -9.841,22.323 -12.976,32.428 -6.464,20.185 -8.971,36.807 -10.191,48.073 -0.7,5.652 -0.888,9.99 -1.081,12.919 -0.168,2.931 -0.256,4.444 -0.256,4.444" /></g><g
           transform="translate(247.7603,374.8799)"
           id="g40"><path
             id="path42"
             style="fill:none;stroke:#a8a8a7;stroke-width:12;stroke-linecap:butt;stroke-linejoin:miter;stroke-miterlimit:10;stroke-dasharray:none;stroke-opacity:1;"
             d="m 0,0 c 0,0 -0.032,0.831 -0.094,2.441 -0.051,1.611 -0.239,4.014 -0.14,7.135 0.016,6.249 0.44,15.483 2.885,27.027 1.126,5.796 2.97,12.096 5.39,18.851 0.654,1.668 1.228,3.419 1.972,5.134 0.744,1.722 1.503,3.476 2.275,5.263 0.86,1.751 1.736,3.534 2.628,5.348 0.898,1.816 1.964,3.578 2.958,5.43 4.17,7.283 9.291,14.718 15.504,21.961 6.221,7.222 13.482,14.329 21.953,20.703 8.449,6.395 18.011,12.171 28.572,16.924 10.563,4.745 22.173,8.266 34.485,10.463 1.532,0.336 3.096,0.475 4.656,0.709 1.564,0.201 3.132,0.461 4.715,0.626 1.588,0.135 3.181,0.271 4.78,0.407 l 2.407,0.21 2.42,0.08 c 1.621,0.059 3.246,0.117 4.877,0.175 1.63,0.012 3.263,-0.046 4.907,-0.062 3.297,0.034 6.582,-0.311 9.917,-0.497 6.621,-0.672 13.355,-1.538 20.018,-3.139 l 2.517,-0.552 c 0.843,-0.179 1.661,-0.443 2.496,-0.66 1.666,-0.455 3.337,-0.911 5.012,-1.368 1.651,-0.539 3.307,-1.079 4.966,-1.62 0.829,-0.277 1.67,-0.531 2.495,-0.826 l 2.457,-0.944 c 13.188,-4.914 25.973,-11.9 37.801,-20.686 1.462,-1.124 2.925,-2.251 4.391,-3.378 1.444,-1.159 2.831,-2.388 4.259,-3.583 0.704,-0.607 1.433,-1.193 2.122,-1.82 l 2.043,-1.912 2.052,-1.916 c 0.691,-0.634 1.374,-1.278 2.014,-1.964 l 3.937,-4.047 c 1.295,-1.371 2.508,-2.818 3.774,-4.229 0.622,-0.714 1.268,-1.413 1.875,-2.141 l 1.78,-2.224 1.786,-2.23 c 0.603,-0.739 1.197,-1.487 1.742,-2.27 l 3.369,-4.649 c 1.101,-1.569 2.11,-3.201 3.176,-4.806 0.52,-0.809 1.069,-1.604 1.568,-2.428 l 1.462,-2.497 1.467,-2.502 c 0.5,-0.831 0.981,-1.671 1.412,-2.538 l 2.697,-5.164 c 0.87,-1.74 1.642,-3.527 2.473,-5.294 0.401,-0.889 0.836,-1.768 1.213,-2.669 l 1.094,-2.72 1.097,-2.728 c 0.375,-0.907 0.738,-1.82 1.039,-2.753 l 1.928,-5.578 c 0.622,-1.869 1.118,-3.777 1.687,-5.67 l 0.823,-2.851 0.683,-2.888 c 0.434,-1.93 0.961,-3.851 1.326,-5.802 1.595,-7.788 2.529,-15.73 3.077,-23.738 0.338,-8.008 0.291,-16.077 -0.448,-24.123 -0.15,-2.016 -0.465,-4.009 -0.69,-6.02 l -0.369,-3.013 -0.514,-2.991 c -0.363,-1.989 -0.657,-4 -1.08,-5.981 l -1.341,-5.934 c -0.206,-0.996 -0.472,-1.974 -0.753,-2.949 l -0.818,-2.932 -0.819,-2.938 c -0.287,-0.975 -0.632,-1.93 -0.946,-2.896 -0.654,-1.922 -1.255,-3.871 -1.958,-5.779 l -2.209,-5.689 c -0.354,-0.957 -0.757,-1.891 -1.181,-2.816 l -1.243,-2.788 -1.246,-2.792 c -0.428,-0.924 -0.909,-1.819 -1.362,-2.732 -0.929,-1.809 -1.81,-3.652 -2.787,-5.439 -1.007,-1.772 -2.013,-3.544 -3.017,-5.313 -0.489,-0.897 -1.029,-1.759 -1.58,-2.614 l -1.634,-2.58 -1.637,-2.582 c -0.562,-0.85 -1.163,-1.67 -1.742,-2.506 -1.183,-1.657 -2.318,-3.353 -3.542,-4.978 -1.25,-1.608 -2.498,-3.215 -3.745,-4.819 -0.612,-0.816 -1.268,-1.591 -1.935,-2.358 l -1.984,-2.315 -1.986,-2.315 c -0.671,-0.763 -1.385,-1.484 -2.076,-2.228 -1.401,-1.469 -2.769,-2.974 -4.201,-4.411 -1.463,-1.409 -2.924,-2.816 -4.382,-4.221 -11.86,-11.049 -25.197,-20.425 -39.47,-27.64 l -2.667,-1.374 c -0.896,-0.438 -1.81,-0.835 -2.715,-1.254 -1.82,-0.825 -3.634,-1.647 -5.445,-2.467 -1.85,-0.736 -3.696,-1.469 -5.537,-2.201 -0.927,-0.355 -1.838,-0.755 -2.775,-1.071 l -2.809,-0.959 c -7.455,-2.678 -15.099,-4.573 -22.732,-6.202 -3.838,-0.664 -7.656,-1.47 -11.501,-1.878 -1.92,-0.236 -3.835,-0.509 -5.751,-0.708 -1.922,-0.147 -3.837,-0.295 -5.746,-0.441 l -2.867,-0.216 -2.864,-0.079 c -1.91,-0.048 -3.814,-0.096 -5.713,-0.144 -1.899,-0.012 -3.792,0.075 -5.683,0.11 -1.89,0.067 -3.784,0.047 -5.656,0.228 -15.021,0.963 -29.648,3.664 -43.319,8.042 -13.67,4.383 -26.428,10.239 -37.994,17.116 -23.168,13.795 -41.278,31.675 -54.432,49.63 -1.599,2.281 -3.254,4.481 -4.726,6.746 -1.458,2.281 -2.891,4.523 -4.298,6.725 -1.306,2.271 -2.588,4.501 -3.846,6.689 -1.251,2.197 -2.315,4.436 -3.442,6.595 -4.31,8.722 -7.764,17.048 -10.239,24.793 -5.148,15.453 -7.222,28.243 -8.249,36.941 -0.606,4.357 -0.765,7.718 -0.943,9.984 -0.161,2.268 -0.244,3.439 -0.244,3.439" /></g><g
           transform="translate(304.4531,374.6914)"
           id="g44"><path
             id="path46"
             style="fill:none;stroke:#a8a8a7;stroke-width:12;stroke-linecap:butt;stroke-linejoin:miter;stroke-miterlimit:10;stroke-dasharray:none;stroke-opacity:1;"
             d="m 0,0 c 0,0 -0.036,0.489 -0.106,1.437 -0.065,0.947 -0.284,2.373 -0.278,4.199 -0.177,3.68 -0.185,9.082 0.943,15.895 0.466,3.436 1.424,7.159 2.653,11.217 0.357,0.994 0.614,2.061 1.022,3.09 0.412,1.026 0.813,2.086 1.203,3.183 0.476,1.052 0.964,2.127 1.429,3.247 0.477,1.112 1.101,2.17 1.628,3.315 4.603,8.891 11.596,18.494 21.574,26.715 4.985,4.086 10.659,7.828 16.975,10.996 6.323,3.159 13.333,5.554 20.904,7.227 0.937,0.27 1.911,0.353 2.876,0.54 0.969,0.154 1.937,0.376 2.923,0.512 0.991,0.105 1.986,0.221 2.988,0.351 l 1.508,0.203 1.518,0.088 c 1.013,0.065 2.034,0.142 3.062,0.233 1.022,0.042 2.04,0.023 3.072,0.056 2.073,0.133 4.113,-0.071 6.21,-0.074 4.133,-0.305 8.368,-0.634 12.55,-1.518 l 1.589,-0.275 c 0.534,-0.084 1.044,-0.25 1.57,-0.367 1.046,-0.255 2.103,-0.499 3.169,-0.73 1.045,-0.306 2.092,-0.612 3.142,-0.919 0.526,-0.154 1.064,-0.284 1.589,-0.45 l 1.557,-0.552 c 8.397,-2.783 16.643,-6.944 24.386,-12.296 0.948,-0.694 1.907,-1.381 2.881,-2.061 0.947,-0.711 1.846,-1.483 2.791,-2.211 0.464,-0.374 0.954,-0.724 1.406,-1.113 l 1.338,-1.192 1.36,-1.183 c 0.463,-0.387 0.919,-0.782 1.334,-1.216 0.857,-0.844 1.727,-1.681 2.613,-2.514 0.863,-0.852 1.651,-1.77 2.503,-2.644 0.415,-0.445 0.855,-0.874 1.26,-1.33 l 1.176,-1.4 1.199,-1.394 c 0.409,-0.459 0.812,-0.924 1.167,-1.422 12.327,-15.351 20.351,-34.764 22.125,-55.911 0.337,-5.28 0.488,-10.592 0.153,-15.885 -0.049,-1.329 -0.249,-2.632 -0.348,-3.959 l -0.17,-1.989 -0.295,-1.964 c -0.212,-1.308 -0.34,-2.641 -0.587,-3.948 l -0.771,-3.918 c -0.105,-0.662 -0.269,-1.307 -0.441,-1.95 l -0.489,-1.94 -0.471,-1.952 c -0.168,-0.648 -0.391,-1.277 -0.579,-1.918 -0.406,-1.274 -0.745,-2.577 -1.173,-3.848 l -1.359,-3.792 c -0.205,-0.644 -0.459,-1.266 -0.729,-1.881 l -0.777,-1.864 -0.761,-1.876 c -0.265,-0.621 -0.579,-1.217 -0.863,-1.829 -0.592,-1.211 -1.124,-2.461 -1.742,-3.664 l -1.913,-3.583 c -0.3,-0.612 -0.648,-1.192 -1.006,-1.767 l -1.046,-1.744 -1.034,-1.759 c -0.358,-0.576 -0.755,-1.127 -1.128,-1.694 -0.766,-1.119 -1.476,-2.287 -2.268,-3.392 l -2.423,-3.286 c -0.387,-0.564 -0.817,-1.091 -1.254,-1.61 l -1.291,-1.582 -1.281,-1.595 c -0.436,-0.525 -0.91,-1.011 -1.361,-1.522 -0.92,-1.001 -1.798,-2.049 -2.734,-3.039 l -2.87,-2.904 c -7.777,-7.614 -16.575,-14.166 -26.057,-19.249 l -1.766,-0.982 c -0.596,-0.31 -1.208,-0.582 -1.81,-0.878 -1.209,-0.59 -2.416,-1.179 -3.619,-1.766 -1.235,-0.522 -2.467,-1.044 -3.695,-1.563 -0.619,-0.255 -1.221,-0.558 -1.85,-0.779 l -1.88,-0.681 c -4.975,-1.962 -10.12,-3.319 -15.266,-4.58 -2.599,-0.482 -5.172,-1.148 -7.794,-1.456 -1.306,-0.187 -2.607,-0.421 -3.915,-0.59 -1.314,-0.128 -2.625,-0.256 -3.932,-0.383 l -1.964,-0.208 -1.963,-0.086 c -1.311,-0.066 -2.619,-0.133 -3.922,-0.199 -1.302,-0.042 -2.595,0.008 -3.892,-0.004 -1.293,0.019 -2.599,-0.057 -3.876,0.058 -10.28,0.44 -20.306,2.014 -29.738,4.806 -9.424,2.798 -18.294,6.619 -26.398,11.188 -16.228,9.173 -29.114,21.369 -38.547,33.683 -1.133,1.573 -2.345,3.069 -3.396,4.631 -1.052,1.567 -2.085,3.108 -3.101,4.623 -0.941,1.565 -1.866,3.101 -2.773,4.608 -0.914,1.511 -1.661,3.068 -2.49,4.552 -3.119,6.024 -5.688,11.774 -7.504,17.158 -3.83,10.722 -5.472,19.68 -6.307,25.808 -0.511,3.063 -0.641,5.447 -0.804,7.049 -0.153,1.605 -0.232,2.434 -0.232,2.434" /></g><g
           transform="translate(77.9448,373.4229)"
           id="g48"><path
             id="path50"
             style="fill:none;stroke:#9d9d9c;stroke-width:12;stroke-linecap:butt;stroke-linejoin:miter;stroke-miterlimit:10;stroke-dasharray:none;stroke-opacity:1;"
             d="M 0,0 V 285.057" /></g><g
           transform="translate(265.9746,374.4238)"
           id="g52"><path
             id="path54"
             style="fill:#0065bd;fill-opacity:1;fill-rule:nonzero;stroke:none;"
             d="m 0,0 c 0,-10.177 -8.25,-18.427 -18.425,-18.427 -10.176,0 -18.426,8.25 -18.426,18.427 0,10.175 8.25,18.426 18.426,18.426 C -8.25,18.426 0,10.175 0,0" /></g><g
           transform="translate(209.9307,374.4238)"
           id="g56"><path
             id="path58"
             style="fill:#0065bd;fill-opacity:1;fill-rule:nonzero;stroke:none;"
             d="m 0,0 c 0,-10.177 -8.25,-18.427 -18.425,-18.427 -10.176,0 -18.426,8.25 -18.426,18.427 0,10.175 8.25,18.426 18.426,18.426 C -8.25,18.426 0,10.175 0,0" /></g><g
           transform="translate(153.3369,374.4238)"
           id="g60"><path
             id="path62"
             style="fill:#0065bd;fill-opacity:1;fill-rule:nonzero;stroke:none;"
             d="m 0,0 c 0,-10.177 -8.25,-18.426 -18.425,-18.426 -10.176,0 -18.426,8.249 -18.426,18.426 0,10.175 8.25,18.426 18.426,18.426 C -8.25,18.426 0,10.175 0,0" /></g><g
           transform="translate(96.3701,374.4238)"
           id="g64"><path
             id="path66"
             style="fill:#0065bd;fill-opacity:1;fill-rule:nonzero;stroke:none;"
             d="m 0,0 c 0,-10.177 -8.25,-18.428 -18.425,-18.428 -10.176,0 -18.426,8.251 -18.426,18.428 0,10.175 8.25,18.426 18.426,18.426 C -8.25,18.426 0,10.175 0,0" /></g><g
           transform="translate(116.2935,658.4805)"
           id="g68"><path
             id="path70"
             style="fill:#0065bd;fill-opacity:1;fill-rule:nonzero;stroke:none;"
             d="m 0,0 c 0,-21.178 -17.171,-38.35 -38.349,-38.35 -21.177,0 -38.348,17.172 -38.348,38.35 0,21.178 17.171,38.349 38.348,38.349 C -17.171,38.349 0,21.178 0,0" /></g></g></g><text
       id="text74"
       style="font-style:normal;font-variant:normal;font-weight:normal;font-stretch:normal;font-size:14px;font-family:Roboto;-inkscape-font-specification:Roboto;writing-mode:lr-tb;fill:#ffffff;fill-opacity:1;fill-rule:nonzero;stroke:none"
       transform="matrix(1,0,0,-1,245.4844,369.7695)"><tspan
         style="font-style:normal;font-variant:normal;font-weight:500;font-stretch:normal;font-family:Roboto;-inkscape-font-specification:'Roboto Medium'"
         id="tspan72"
         sodipodi:role="line"
         y="0"
         x="0 -58.113998 -53.984001 -116.774 -112.644 -108.514 -174.02 -169.89">IIIIIIIV</tspan></text><text
       id="text78"
       style="font-style:normal;font-variant:normal;font-weight:normal;font-stretch:normal;font-size:10px;font-family:Roboto;-inkscape-font-specification:Roboto;writing-mode:lr-tb;fill:#0065bd;fill-opacity:1;fill-rule:nonzero;stroke:none"
       transform="matrix(1,0,0,-1,2.9995,377.6138)"><tspan
         style="font-style:normal;font-variant:normal;font-weight:bold;font-stretch:normal;font-family:Roboto;-inkscape-font-specification:'Roboto Bold'"
         id="tspan76"
         sodipodi:role="line"
         y="0"
         x="0 9.0699997 11.65 14.23 19.969999 25.34 28.860001 34.970001 40.900002 46.639999">Milestones</tspan></text><text
       id="text82"
       style="font-style:normal;font-variant:normal;font-weight:normal;font-stretch:normal;font-size:14px;font-family:Roboto;-inkscape-font-specification:Roboto;writing-mode:lr-tb;fill:#ffffff;fill-opacity:1;fill-rule:nonzero;stroke:none"
       transform="matrix(1,0,0,-1,57.5967,658.4795)"><tspan
         style="font-style:normal;font-variant:normal;font-weight:bold;font-stretch:normal;font-family:Roboto;-inkscape-font-specification:'Roboto Bold'"
         id="tspan80"
         sodipodi:role="line"
         y="0"
         x="0 8.302 12.432 22.806 32.396">FINAL</tspan></text><text
       id="text86"
       style="font-style:normal;font-variant:normal;font-weight:normal;font-stretch:normal;font-size:9px;font-family:Roboto;-inkscape-font-specification:Roboto;writing-mode:lr-tb;fill:#1d1d1b;fill-opacity:1;fill-rule:nonzero;stroke:none"
       transform="matrix(1,0,0,-1,50.6938,647.6797)"><tspan
         style="font-style:normal;font-variant:normal;font-weight:500;font-stretch:normal;font-family:Roboto;-inkscape-font-specification:'Roboto Medium';fill:#ffffff"
         id="tspan84"
         sodipodi:role="line"
         y="0"
         x="0 6.0029998 9.342 14.508 19.341 24.507 29.844 33.012001 38.178001 41.346001 43.667999 49.167">Presentation</tspan></text><g
       id="g88"><g
         clip-path="url(#clipPath94)"
         id="g90"><g
           transform="translate(302.8208,272.7334)"
           id="g96"><path
             id="path98"
             style="fill:#23313d;fill-opacity:1;fill-rule:nonzero;stroke:none;"
             d="m 0,0 c -6.089,-6.089 -15.959,-6.089 -22.048,-0.001 -6.088,6.089 -6.089,15.96 0,22.049 C -15.959,28.137 -6.088,28.136 0,22.047 6.088,15.959 6.088,6.089 0,0" /></g></g></g><text
       id="text102"
       style="font-variant:normal;font-weight:normal;font-stretch:normal;font-size:14px;font-family:Roboto;-inkscape-font-specification:Roboto;writing-mode:lr-tb;fill:#ffffff;fill-opacity:1;fill-rule:nonzero;stroke:none;font-style:normal;"
       transform="matrix(0.70710678,-0.70710678,-0.70710678,-0.70710678,285.5359,282.9455)"><tspan
         style="font-style:normal;font-variant:normal;font-weight:normal;font-stretch:normal;font-family:Roboto;-inkscape-font-specification:Roboto;"
         id="tspan100"
         y="0"
         x="0">4</tspan></text><text
       id="text106"
       style="font-variant:normal;font-weight:normal;font-stretch:normal;font-size:8.00006px;font-family:Roboto;-inkscape-font-specification:Roboto;writing-mode:lr-tb;fill:#000000;fill-opacity:1;fill-rule:nonzero;stroke:none;font-style:normal;"
       transform="matrix(0.70710678,-0.70710678,-0.70710678,-0.70710678,256.2906,283.7216)"><tspan
         style="font-style:normal;font-variant:normal;font-weight:normal;font-stretch:normal;font-family:Roboto;-inkscape-font-specification:Roboto;"
         id="tspan104"
         sodipodi:role="line"
         y="0"
         x="0 2.5200205 6.9680562 8.744071 13.192106 17.344141 19.120155 23.568192 28.160227 30.384245 34.680279 36.456295 41.048332 45.496368">thinking aloud</tspan></text><g
       id="g108"><g
         clip-path="url(#clipPath114)"
         id="g110"><g
           transform="translate(263.1538,232.7334)"
           id="g116"><path
             id="path118"
             style="fill:#23313d;fill-opacity:1;fill-rule:nonzero;stroke:none;"
             d="m 0,0 c -6.089,-6.089 -15.959,-6.089 -22.048,-0.001 -6.088,6.089 -6.089,15.96 0,22.049 C -15.959,28.137 -6.088,28.136 0,22.047 6.088,15.959 6.088,6.089 0,0" /></g></g></g><text
       id="text122"
       style="font-variant:normal;font-weight:normal;font-stretch:normal;font-size:14px;font-family:Roboto;-inkscape-font-specification:Roboto;writing-mode:lr-tb;fill:#ffffff;fill-opacity:1;fill-rule:nonzero;stroke:none;font-style:normal;"
       transform="matrix(0.70710678,-0.70710678,-0.70710678,-0.70710678,245.8689,242.9455)"><tspan
         style="font-style:normal;font-variant:normal;font-weight:normal;font-stretch:normal;font-family:Roboto;-inkscape-font-specification:Roboto;"
         id="tspan120"
         y="0"
         x="0">9</tspan></text><text
       id="text126"
       style="font-variant:normal;font-weight:normal;font-stretch:normal;font-size:8.00006px;font-family:Roboto;-inkscape-font-specification:Roboto;writing-mode:lr-tb;fill:#000000;fill-opacity:1;fill-rule:nonzero;stroke:none;font-style:normal;"
       transform="matrix(0.70710678,-0.70710678,-0.70710678,-0.70710678,210.0279,250.3173)"><tspan
         style="font-style:normal;font-variant:normal;font-weight:normal;font-stretch:normal;font-family:Roboto;-inkscape-font-specification:Roboto;"
         id="tspan124"
         sodipodi:role="line"
         y="0"
         x="0 4.4480362 8.744071 13.192106 15.856129 17.632143 21.632175 24.152195 25.928209 30.224245 32.448261 36.744297 40.744331 45.040363 46.81638 51.264416 55.560448 58.080471 59.856483 64.448524">heuristic evaluation</tspan></text><g
       id="g128"><g
         clip-path="url(#clipPath134)"
         id="g130"><g
           transform="translate(223.3335,193.0049)"
           id="g136"><path
             id="path138"
             style="fill:#23313d;fill-opacity:1;fill-rule:nonzero;stroke:none;"
             d="m 0,0 c -6.089,-6.089 -15.959,-6.089 -22.048,-0.001 -6.088,6.089 -6.089,15.96 0,22.049 C -15.959,28.137 -6.088,28.136 0,22.047 6.088,15.959 6.088,6.089 0,0" /></g></g></g><text
       id="text142"
       style="font-variant:normal;font-weight:normal;font-stretch:normal;font-size:14px;font-family:Roboto;-inkscape-font-specification:Roboto;writing-mode:lr-tb;fill:#ffffff;fill-opacity:1;fill-rule:nonzero;stroke:none;font-style:normal;"
       transform="matrix(0.70710678,-0.70710678,-0.70710678,-0.70710678,202.6711,206.657)"><tspan
         style="font-style:normal;font-variant:normal;font-weight:normal;font-stretch:normal;font-family:Roboto;-inkscape-font-specification:Roboto;"
         id="tspan140"
         sodipodi:role="line"
         y="0"
         x="0 7.7840042">14</tspan></text><text
       id="text148"
       style="font-variant:normal;font-weight:normal;font-stretch:normal;font-size:8.00006px;font-family:Roboto;-inkscape-font-specification:Roboto;writing-mode:lr-tb;fill:#000000;fill-opacity:1;fill-rule:nonzero;stroke:none;font-style:normal;"
       transform="matrix(0.70710678,-0.70710678,-0.70710678,-0.70710678,168.7368,212.0596)"><tspan
         id="tspan144"
         sodipodi:role="line"
         y="0"
         x="0 4.4480362 8.8960724 13.64011 17.936146 20.600166 24.600199 27.12022 31.416254 35.864288 40.60833 42.384342 46.832378 51.424416 53.648434 58.09647 62.0965 66.39254 69.056557">understanding users</tspan><tspan
         id="tspan146"
         sodipodi:role="line"
         y="9.6000776"
         x="0.44800362 4.7440386 8.888072 13.632111 17.928144 20.592167 22.368181 29.192236 33.48827 37.936306 40.456326 44.752361 46.528378 48.752396 53.496433 57.792469 61.7925 63.568516 68.160553">experimental design</tspan></text><g
       id="g150"><g
         clip-path="url(#clipPath156)"
         id="g152"><g
           transform="translate(183.5835,153.0049)"
           id="g158"><path
             id="path160"
             style="fill:#23313d;fill-opacity:1;fill-rule:nonzero;stroke:none;"
             d="m 0,0 c -6.089,-6.089 -15.959,-6.089 -22.048,-0.001 -6.088,6.089 -6.089,15.96 0,22.049 C -15.959,28.137 -6.088,28.136 0,22.047 6.088,15.959 6.088,6.089 0,0" /></g></g></g><text
       id="text164"
       style="font-variant:normal;font-weight:normal;font-stretch:normal;font-size:14px;font-family:Roboto;-inkscape-font-specification:Roboto;writing-mode:lr-tb;fill:#ffffff;fill-opacity:1;fill-rule:nonzero;stroke:none;font-style:normal;"
       transform="matrix(0.70710678,-0.70710678,-0.70710678,-0.70710678,162.7961,166.7195)"><tspan
         id="tspan162"
         sodipodi:role="line"
         y="0"
         x="0 7.7840042">18</tspan></text><text
       id="text170"
       style="font-variant:normal;font-weight:normal;font-stretch:normal;font-size:8.00006px;font-family:Roboto;-inkscape-font-specification:Roboto;writing-mode:lr-tb;fill:#000000;fill-opacity:1;fill-rule:nonzero;stroke:none;font-style:normal;"
       transform="matrix(0.70710678,-0.70710678,-0.70710678,-0.70710678,138.5241,162.5222)"><tspan
         id="tspan166"
         sodipodi:role="line"
         y="0"
         x="0 4.2960348 8.4400682 13.184107 17.480141 20.144163 21.920177 28.744232 33.040268 37.488304 40.008324 44.304359 46.080372">experimental </tspan><tspan
         id="tspan168"
         sodipodi:role="line"
         y="9.6000776"
         x="-0.30400246 2.2168179 6.5128527 11.256891 15.704927 17.480942 20.000961 24.296997 31.121052 35.417088 39.865124 42.385143">requirements</tspan></text><g
       id="g172"><g
         clip-path="url(#clipPath178)"
         id="g174"><g
           transform="translate(587.6729,548.4541)"
           id="g180"><path
             id="path182"
             style="fill:#3c87c8;fill-opacity:1;fill-rule:nonzero;stroke:none;"
             d="m 0,0 c -6.088,-6.089 -15.959,-6.089 -22.047,-0.001 -6.089,6.089 -6.09,15.96 0,22.049 C -15.959,28.137 -6.088,28.136 0,22.047 6.089,15.959 6.089,6.089 0,0" /></g></g></g><text
       id="text186"
       style="font-variant:normal;font-weight:normal;font-stretch:normal;font-size:14px;font-family:Roboto;-inkscape-font-specification:Roboto;writing-mode:lr-tb;fill:#ffffff;fill-opacity:1;fill-rule:nonzero;stroke:none;font-style:normal;"
       transform="matrix(0.70710678,-0.70710678,-0.70710678,-0.70710678,567.552,562.2517)"><tspan
         style="font-style:normal;font-variant:normal;font-weight:normal;font-stretch:normal;font-family:Roboto;-inkscape-font-specification:Roboto;"
         id="tspan184"
         sodipodi:role="line"
         y="0"
         x="0 7.7840042">16</tspan></text><text
       id="text190"
       style="font-variant:normal;font-weight:normal;font-stretch:normal;font-size:8.00006px;font-family:Roboto;-inkscape-font-specification:Roboto;writing-mode:lr-tb;fill:#000000;fill-opacity:1;fill-rule:nonzero;stroke:none;font-style:normal;"
       transform="matrix(0.70710678,-0.70710678,-0.70710678,-0.70710678,536.9543,563.6311)"><tspan
         x="0 6.8240552 11.416092 16.160131 20.456165 22.23218 24.456198 26.232212 30.680248 33.200268 37.496304 40.160324 44.45636 48.752396 51.272415 53.048428 57.640465"
         y="0"
         style="font-style:normal;font-variant:normal;font-weight:normal;font-stretch:normal;font-family:Roboto;-inkscape-font-specification:Roboto;"
         id="tspan188"
         sodipodi:role="line">model interaction</tspan></text><g
       id="g192"><g
         clip-path="url(#clipPath198)"
         id="g194"><g
           transform="translate(548.0068,508.4541)"
           id="g200"><path
             id="path202"
             style="fill:#3c87c8;fill-opacity:1;fill-rule:nonzero;stroke:none;"
             d="m 0,0 c -6.09,-6.089 -15.96,-6.089 -22.049,-0.001 -6.088,6.089 -6.089,15.96 0,22.049 C -15.96,28.137 -6.089,28.136 0,22.047 6.088,15.959 6.088,6.089 0,0" /></g></g></g><text
       id="text206"
       style="font-variant:normal;font-weight:normal;font-stretch:normal;font-size:14px;font-family:Roboto;-inkscape-font-specification:Roboto;writing-mode:lr-tb;fill:#ffffff;fill-opacity:1;fill-rule:nonzero;stroke:none;font-style:normal;"
       transform="matrix(0.70710678,-0.70710678,-0.70710678,-0.70710678,527.552,522.2654)"><tspan
         style="font-style:normal;font-variant:normal;font-weight:normal;font-stretch:normal;font-family:Roboto;-inkscape-font-specification:Roboto;"
         id="tspan204"
         sodipodi:role="line"
         y="0"
         x="0 7.7840042">12</tspan></text><text
       id="text210"
       style="font-variant:normal;font-weight:normal;font-stretch:normal;font-size:8.00006px;font-family:Roboto;-inkscape-font-specification:Roboto;writing-mode:lr-tb;fill:#000000;fill-opacity:1;fill-rule:nonzero;stroke:none;font-style:normal;"
       transform="matrix(0.70710678,-0.70710678,-0.70710678,-0.70710678,500.3789,520.5396)"><tspan
         style="font-style:normal;font-variant:normal;font-weight:normal;font-stretch:normal;font-family:Roboto;-inkscape-font-specification:Roboto;"
         id="tspan208"
         sodipodi:role="line"
         y="0"
         x="0 4.0000324 6.5200529 10.520085 12.2961 16.592134 18.816153 23.56019 26.081011 30.673048 33.193069 37.785107 40.305126 44.305157 49.049198">style prototype</tspan></text><g
       id="g212"><g
         clip-path="url(#clipPath218)"
         id="g214"><g
           transform="translate(508.1865,468.7256)"
           id="g220"><path
             id="path222"
             style="fill:#3c87c8;fill-opacity:1;fill-rule:nonzero;stroke:none;"
             d="m 0,0 c -6.09,-6.089 -15.96,-6.089 -22.049,-0.001 -6.088,6.089 -6.089,15.96 0,22.049 C -15.96,28.137 -6.089,28.136 0,22.047 6.088,15.959 6.088,6.089 0,0" /></g></g></g><text
       id="text226"
       style="font-variant:normal;font-weight:normal;font-stretch:normal;font-size:14px;font-family:Roboto;-inkscape-font-specification:Roboto;writing-mode:lr-tb;fill:#ffffff;fill-opacity:1;fill-rule:nonzero;stroke:none;font-style:normal;"
       transform="matrix(0.70710678,-0.70710678,-0.70710678,-0.70710678,490.9012,478.9377)"><tspan
         style="font-style:normal;font-variant:normal;font-weight:normal;font-stretch:normal;font-family:Roboto;-inkscape-font-specification:Roboto;"
         id="tspan224"
         y="0"
         x="0">7</tspan></text><g
       id="g228"><g
         clip-path="url(#clipPath234)"
         id="g230"><g
           transform="translate(93.5352,512.8936)"
           id="g236"><path
             id="path238"
             style="fill:#23313d;fill-opacity:1;fill-rule:nonzero;stroke:none;"
             d="m 0,0 c 0,-8.612 -6.98,-15.591 -15.59,-15.592 -8.61,0.001 -15.591,6.98 -15.591,15.592 0,8.61 6.981,15.589 15.592,15.589 C -6.98,15.589 0,8.61 0,0" /></g></g></g><text
       id="text242"
       style="font-variant:normal;font-weight:normal;font-stretch:normal;font-size:14px;font-family:Roboto;-inkscape-font-specification:Roboto;writing-mode:lr-tb;fill:#ffffff;fill-opacity:1;fill-rule:nonzero;stroke:none;font-style:normal;"
       transform="matrix(1,0,0,-1,69.1611,507.9282)"><tspan
         style="font-style:normal;font-variant:normal;font-weight:normal;font-stretch:normal;font-family:Roboto;-inkscape-font-specification:Roboto;"
         id="tspan240"
         sodipodi:role="line"
         y="0"
         x="0 7.7839999">19</tspan></text><text
       id="text246"
       style="font-variant:normal;font-weight:normal;font-stretch:normal;font-size:8.00006px;font-family:Roboto;-inkscape-font-specification:Roboto;writing-mode:lr-tb;fill:#000000;fill-opacity:1;fill-rule:nonzero;stroke:none;font-style:normal;"
       transform="matrix(0.70710678,-0.70710678,-0.70710678,-0.70710678,455.5808,485.7888)"><tspan
         style="font-style:normal;font-variant:normal;font-weight:normal;font-stretch:normal;font-family:Roboto;-inkscape-font-specification:Roboto;"
         id="tspan244"
         sodipodi:role="line"
         y="0"
         x="0 2.5200205 6.8160553 11.560094 15.856129 19.856161 21.632175 26.224213 30.672249 32.896267 37.640305 40.159523 44.75156 47.271584 51.863621 54.38364 58.383671 63.127712">redesign prototype</tspan></text><g
       id="g248"><g
         clip-path="url(#clipPath254)"
         id="g250"><g
           transform="translate(468.4365,428.7256)"
           id="g256"><path
             id="path258"
             style="fill:#3c87c8;fill-opacity:1;fill-rule:nonzero;stroke:none;"
             d="m 0,0 c -6.09,-6.089 -15.96,-6.089 -22.049,-0.001 -6.088,6.089 -6.089,15.96 0,22.049 C -15.96,28.137 -6.089,28.136 0,22.047 6.088,15.959 6.088,6.089 0,0" /></g></g></g><text
       id="text262"
       style="font-variant:normal;font-weight:normal;font-stretch:normal;font-size:14px;font-family:Roboto;-inkscape-font-specification:Roboto;writing-mode:lr-tb;fill:#ffffff;fill-opacity:1;fill-rule:nonzero;stroke:none;font-style:normal;"
       transform="matrix(0.70710678,-0.70710678,-0.70710678,-0.70710678,451.1512,438.9377)"><tspan
         style="font-style:normal;font-variant:normal;font-weight:normal;font-stretch:normal;font-family:Roboto;-inkscape-font-specification:Roboto;"
         id="tspan260"
         y="0"
         x="0">2</tspan></text><text
       id="text268"
       style="font-variant:normal;font-weight:normal;font-stretch:normal;font-size:8.00006px;font-family:Roboto;-inkscape-font-specification:Roboto;writing-mode:lr-tb;fill:#000000;fill-opacity:1;fill-rule:nonzero;stroke:none;font-style:normal;"
       transform="matrix(0.70710678,-0.70710678,-0.70710678,-0.70710678,413.3725,448.2471)"><tspan
         style="font-style:normal;font-variant:normal;font-weight:normal;font-stretch:normal;font-family:Roboto;-inkscape-font-specification:Roboto;"
         id="tspan264"
         sodipodi:role="line"
         y="0"
         x="0 4.4480362 8.4480686 12.744103 15.408125 17.632143 22.22418 26.816217 31.112251 32.888268 36.888298 39.112316 41.336334 46.080372 50.376408 53.040428 57.040462 61.6325 66.080536 70.376572">user goals, personas</tspan><tspan
         style="font-style:normal;font-variant:normal;font-weight:normal;font-stretch:normal;font-family:Roboto;-inkscape-font-specification:Roboto;"
         id="tspan266"
         sodipodi:role="line"
         y="9.6000776"
         x="12.144098 16.440132 20.888168 25.632208 27.856226 31.856258 36.152294 40.448326 44.896362 49.192398 51.856419 53.632435 58.224472">and scenarios</tspan></text><g
       id="g270"><g
         clip-path="url(#clipPath276)"
         id="g272"><g
           transform="translate(474.0068,304.5352)"
           id="g278"><path
             id="path280"
             style="fill:#2f5f84;fill-opacity:1;fill-rule:nonzero;stroke:none;"
             d="m 0,0 c 6.089,-6.09 6.089,-15.96 0.001,-22.049 -6.089,-6.088 -15.96,-6.089 -22.049,0 -6.089,6.089 -6.088,15.96 10e-4,22.049 C -15.959,6.088 -6.089,6.088 0,0" /></g></g></g><text
       id="text284"
       style="font-variant:normal;font-weight:normal;font-stretch:normal;font-size:14px;font-family:Roboto;-inkscape-font-specification:Roboto;writing-mode:lr-tb;fill:#ffffff;fill-opacity:1;fill-rule:nonzero;stroke:none;font-style:normal;"
       transform="matrix(0.70710678,0.70710678,0.70710678,-0.70710678,463.7957,287.2483)"><tspan
         style="font-style:normal;font-variant:normal;font-weight:normal;font-stretch:normal;font-family:Roboto;-inkscape-font-specification:Roboto;"
         id="tspan282"
         y="0"
         x="0">3</tspan></text><text
       id="text288"
       style="font-variant:normal;font-weight:normal;font-stretch:normal;font-size:8.00006px;font-family:Roboto;-inkscape-font-specification:Roboto;writing-mode:lr-tb;fill:#000000;fill-opacity:1;fill-rule:nonzero;stroke:none;font-style:normal;"
       transform="matrix(0.70710678,0.70710678,0.70710678,-0.70710678,460.4536,255.4387)"><tspan
         style="font-style:normal;font-variant:normal;font-weight:normal;font-stretch:normal;font-family:Roboto;-inkscape-font-specification:Roboto;"
         id="tspan286"
         sodipodi:role="line"
         y="0"
         x="0 4.7440386 9.0400734 13.784111 18.080147 20.744167 22.968185 27.712225 30.232244 34.82428 37.344303 41.93634 44.45636 48.45639 53.200432">paper prototype</tspan></text><g
       id="g290"><g
         clip-path="url(#clipPath296)"
         id="g292"><g
           transform="translate(514.0068,264.8672)"
           id="g298"><path
             id="path300"
             style="fill:#2f5f84;fill-opacity:1;fill-rule:nonzero;stroke:none;"
             d="m 0,0 c 6.089,-6.088 6.089,-15.959 0.001,-22.047 -6.089,-6.089 -15.96,-6.09 -22.049,0 -6.089,6.088 -6.088,15.959 10e-4,22.047 C -15.959,6.089 -6.089,6.089 0,0" /></g></g></g><text
       id="text304"
       style="font-variant:normal;font-weight:normal;font-stretch:normal;font-size:14px;font-family:Roboto;-inkscape-font-specification:Roboto;writing-mode:lr-tb;fill:#ffffff;fill-opacity:1;fill-rule:nonzero;stroke:none;font-style:normal;"
       transform="matrix(0.70710678,0.70710678,0.70710678,-0.70710678,503.7957,247.5823)"><tspan
         style="font-style:normal;font-variant:normal;font-weight:normal;font-stretch:normal;font-family:Roboto;-inkscape-font-specification:Roboto;"
         id="tspan302"
         y="0"
         x="0">8</tspan></text><text
       id="text308"
       style="font-variant:normal;font-weight:normal;font-stretch:normal;font-size:8.00006px;font-family:Roboto;-inkscape-font-specification:Roboto;writing-mode:lr-tb;fill:#000000;fill-opacity:1;fill-rule:nonzero;stroke:none;font-style:normal;"
       transform="matrix(0.70710678,0.70710678,0.70710678,-0.70710678,494.7467,210.065)"><tspan
         style="font-style:normal;font-variant:normal;font-weight:normal;font-stretch:normal;font-family:Roboto;-inkscape-font-specification:Roboto;"
         id="tspan306"
         sodipodi:role="line"
         y="0"
         x="0 5.7760468 7.5520611 12.144098 13.920113 16.144131 20.888168 25.184204 29.928242 34.224277 36.888298 39.112316 43.856354 46.377174 50.969212 53.489231 58.081268 60.601292 64.601326 69.34536">HiFi paper prototype</tspan></text><g
       id="g310"><g
         clip-path="url(#clipPath316)"
         id="g312"><g
           transform="translate(553.7354,225.0469)"
           id="g318"><path
             id="path320"
             style="fill:#2f5f84;fill-opacity:1;fill-rule:nonzero;stroke:none;"
             d="m 0,0 c 6.089,-6.088 6.089,-15.959 0.001,-22.047 -6.089,-6.089 -15.96,-6.09 -22.049,0 -6.089,6.088 -6.088,15.959 10e-4,22.047 C -15.959,6.089 -6.089,6.089 0,0" /></g></g></g><text
       id="text324"
       style="font-variant:normal;font-weight:normal;font-stretch:normal;font-size:14px;font-family:Roboto;-inkscape-font-specification:Roboto;writing-mode:lr-tb;fill:#ffffff;fill-opacity:1;fill-rule:nonzero;stroke:none;font-style:normal;"
       transform="matrix(0.70710678,0.70710678,0.70710678,-0.70710678,540.3342,204.572)"><tspan
         style="font-style:normal;font-variant:normal;font-weight:normal;font-stretch:normal;font-family:Roboto;-inkscape-font-specification:Roboto;"
         id="tspan322"
         sodipodi:role="line"
         y="0"
         x="0 7.7840042">13</tspan></text><text
       id="text328"
       style="font-variant:normal;font-weight:normal;font-stretch:normal;font-size:8.00006px;font-family:Roboto;-inkscape-font-specification:Roboto;writing-mode:lr-tb;fill:#000000;fill-opacity:1;fill-rule:nonzero;stroke:none;font-style:normal;"
       transform="matrix(0.70710678,0.70710678,0.70710678,-0.70710678,539.8155,175.5843)"><tspan
         style="font-style:normal;font-variant:normal;font-weight:normal;font-stretch:normal;font-family:Roboto;-inkscape-font-specification:Roboto;"
         id="tspan326"
         sodipodi:role="line"
         y="0"
         x="0 5.7760468 10.368084 17.33614 21.784176 24.008194 28.752232 31.272253 35.864288 38.384312 42.976349 45.496368 49.496399 54.24044">HTML prototype</tspan></text><g
       id="g330"><g
         clip-path="url(#clipPath336)"
         id="g332"><g
           transform="translate(593.7354,185.2969)"
           id="g338"><path
             id="path340"
             style="fill:#2f5f84;fill-opacity:1;fill-rule:nonzero;stroke:none;"
             d="m 0,0 c 6.089,-6.088 6.089,-15.959 0.001,-22.047 -6.089,-6.089 -15.96,-6.09 -22.049,0 -6.089,6.088 -6.088,15.959 10e-4,22.047 C -15.959,6.089 -6.089,6.089 0,0" /></g></g></g><text
       id="text344"
       style="font-variant:normal;font-weight:normal;font-stretch:normal;font-size:14px;font-family:Roboto;-inkscape-font-specification:Roboto;writing-mode:lr-tb;fill:#ffffff;fill-opacity:1;fill-rule:nonzero;stroke:none;font-style:normal;"
       transform="matrix(0.70710678,0.70710678,0.70710678,-0.70710678,580.7717,164.8845)"><tspan
         style="font-style:normal;font-variant:normal;font-weight:normal;font-stretch:normal;font-family:Roboto;-inkscape-font-specification:Roboto;"
         id="tspan342"
         sodipodi:role="line"
         y="0"
         x="0 7.7840042">17</tspan></text><text
       id="text348"
       style="font-variant:normal;font-weight:normal;font-stretch:normal;font-size:8.00006px;font-family:Roboto;-inkscape-font-specification:Roboto;writing-mode:lr-tb;fill:#000000;fill-opacity:1;fill-rule:nonzero;stroke:none;font-style:normal;"
       transform="matrix(0.70710678,0.70710678,0.70710678,-0.70710678,574.1071,130.1267)"><tspan
         style="font-style:normal;font-variant:normal;font-weight:normal;font-stretch:normal;font-family:Roboto;-inkscape-font-specification:Roboto;"
         id="tspan346"
         sodipodi:role="line"
         y="0"
         x="0 5.7760468 7.5520611 12.144098 13.920113 16.144131 21.920177 26.512215 33.48027 37.928307 40.152325 44.896362 47.417183 52.00922 54.52924 59.121277 61.6413 65.641335 70.385368">HiFi HTML prototype</tspan></text><g
       id="g350"><g
         clip-path="url(#clipPath356)"
         id="g352"><g
           transform="translate(219.8228,570.9624)"
           id="g358"><path
             id="path360"
             style="fill:#77c4d3;fill-opacity:1;fill-rule:nonzero;stroke:none;"
             d="m 0,0 c 6.089,-6.09 6.089,-15.96 0.001,-22.049 -6.089,-6.088 -15.96,-6.089 -22.049,0 -6.089,6.089 -6.088,15.96 10e-4,22.049 C -15.959,6.088 -6.089,6.088 0,0" /></g></g></g><text
       id="text364"
       style="font-variant:normal;font-weight:normal;font-stretch:normal;font-size:14px;font-family:Roboto;-inkscape-font-specification:Roboto;writing-mode:lr-tb;fill:#ffffff;fill-opacity:1;fill-rule:nonzero;stroke:none;font-style:normal;"
       transform="matrix(0.70710678,0.70710678,0.70710678,-0.70710678,206.3587,550.4099)"><tspan
         x="0 7.7840042"
         y="0"
         style="font-style:normal;font-variant:normal;font-weight:normal;font-stretch:normal;font-family:Roboto;-inkscape-font-specification:Roboto;"
         id="tspan362"
         sodipodi:role="line">15</tspan></text><text
       id="text368"
       style="font-variant:normal;font-weight:normal;font-stretch:normal;font-size:8.00006px;font-family:Roboto;-inkscape-font-specification:Roboto;writing-mode:lr-tb;fill:#000000;fill-opacity:1;fill-rule:nonzero;stroke:none;font-style:normal;"
       transform="matrix(0.70710678,0.70710678,0.70710678,-0.70710678,209.8042,523.5959)"><tspan
         style="font-style:normal;font-variant:normal;font-weight:normal;font-stretch:normal;font-family:Roboto;-inkscape-font-specification:Roboto;"
         id="tspan366"
         sodipodi:role="line"
         y="0"
         x="0 2.5208204 6.816855 10.960889 15.256924 19.552958 22.072979 23.848993 28.441031 32.889065 36.889099 39.113117 43.409149 47.857185">reections and</tspan></text><text
       id="text372"
       style="font-variant:normal;font-weight:normal;font-stretch:normal;font-size:8.00006px;font-family:Roboto;-inkscape-font-specification:Roboto;writing-mode:lr-tb;fill:#000000;fill-opacity:1;fill-rule:nonzero;stroke:none;font-style:normal;"
       transform="matrix(0.70710678,0.70710678,0.70710678,-0.70710678,216.38883,516.60397)"><tspan
         style="font-style:normal;font-variant:normal;font-weight:normal;font-stretch:normal;font-family:Roboto;-inkscape-font-specification:Roboto;"
         id="tspan370"
         sodipodi:role="line"
         y="0"
         x="0 4.2960348 6.0720491 12.896104 14.672118 19.120155 23.712193 25.936211 28.30423 32.896267 35.560287 41.624336 45.920372 48.440392">aiming forward</tspan></text><g
       id="g374"><g
         clip-path="url(#clipPath380)"
         id="g376"><g
           transform="translate(261.627,531.2944)"
           id="g382"><path
             id="path384"
             style="fill:#77c4d3;fill-opacity:1;fill-rule:nonzero;stroke:none;"
             d="m 0,0 c 6.089,-6.088 6.089,-15.959 0.001,-22.047 -6.089,-6.089 -15.96,-6.09 -22.049,0 -6.089,6.088 -6.088,15.959 10e-4,22.047 C -15.959,6.089 -6.089,6.089 0,0" /></g></g></g><text
       id="text388"
       style="font-variant:normal;font-weight:normal;font-stretch:normal;font-size:14px;font-family:Roboto;-inkscape-font-specification:Roboto;writing-mode:lr-tb;fill:#ffffff;fill-opacity:1;fill-rule:nonzero;stroke:none;font-style:normal;"
       transform="matrix(0.70710678,0.70710678,0.70710678,-0.70710678,248.1008,511.2566)"><tspan
         style="font-style:normal;font-variant:normal;font-weight:normal;font-stretch:normal;font-family:Roboto;-inkscape-font-specification:Roboto;"
         id="tspan386"
         sodipodi:role="line"
         y="0"
         x="0 7.7840042">11</tspan></text><text
       id="text394"
       style="font-variant:normal;font-weight:normal;font-stretch:normal;font-size:8.00006px;font-family:Roboto;-inkscape-font-specification:Roboto;writing-mode:lr-tb;fill:#000000;fill-opacity:1;fill-rule:nonzero;stroke:none;font-style:normal;"
       transform="matrix(0.70710678,0.70710678,0.70710678,-0.70710678,249.5422,483.6672)"><tspan
         style="font-style:normal;font-variant:normal;font-weight:normal;font-stretch:normal;font-family:Roboto;-inkscape-font-specification:Roboto;"
         id="tspan390"
         sodipodi:role="line"
         y="0"
         x="0 1.7760143 6.2240505 8.744071 13.040106 15.704127 20.000162 24.296196 26.816217 28.592232 33.184269 37.632305 39.856323 44.152355 48.600391">interaction and</tspan><tspan
         style="font-style:normal;font-variant:normal;font-weight:normal;font-stretch:normal;font-family:Roboto;-inkscape-font-specification:Roboto;"
         id="tspan392"
         sodipodi:role="line"
         y="9.6000776"
         x="-5.328043 -0.5840047 3.7120299 7.7120624 9.4880772 14.080113 18.528151 20.752169 23.120188 25.784208 30.080244 36.904297 41.200333 47.264381 51.856419 54.520439">design framework</tspan></text><g
       id="g396"><g
         clip-path="url(#clipPath402)"
         id="g398"><g
           transform="translate(301.3555,491.4741)"
           id="g404"><path
             id="path406"
             style="fill:#77c4d3;fill-opacity:1;fill-rule:nonzero;stroke:none;"
             d="m 0,0 c 6.089,-6.088 6.089,-15.959 0.001,-22.047 -6.089,-6.089 -15.96,-6.09 -22.049,0 -6.089,6.088 -6.088,15.959 10e-4,22.047 C -15.959,6.089 -6.089,6.089 0,0" /></g></g></g><text
       id="text410"
       style="font-variant:normal;font-weight:normal;font-stretch:normal;font-size:14px;font-family:Roboto;-inkscape-font-specification:Roboto;writing-mode:lr-tb;fill:#ffffff;fill-opacity:1;fill-rule:nonzero;stroke:none;font-style:normal;"
       transform="matrix(0.70710678,0.70710678,0.70710678,-0.70710678,291.1443,474.1888)"><tspan
         style="font-style:normal;font-variant:normal;font-weight:normal;font-stretch:normal;font-family:Roboto;-inkscape-font-specification:Roboto;"
         id="tspan408"
         y="0"
         x="0">6</tspan></text><text
       id="text416"
       style="font-variant:normal;font-weight:normal;font-stretch:normal;font-size:8.00006px;font-family:Roboto;-inkscape-font-specification:Roboto;writing-mode:lr-tb;fill:#000000;fill-opacity:1;fill-rule:nonzero;stroke:none;font-style:normal;"
       transform="matrix(0.70710678,0.70710678,0.70710678,-0.70710678,283.5099,438.0854)"><tspan
         style="font-style:normal;font-variant:normal;font-weight:normal;font-stretch:normal;font-family:Roboto;-inkscape-font-specification:Roboto;"
         id="tspan412"
         sodipodi:role="line"
         y="0"
         x="0 4.4480362 8.4480686 12.744103 14.968122 19.264156 23.56019 27.560223 31.856258 35.856289 38.080307 40.304325 44.752361 48.752396 53.048428 57.792469 59.568481 61.344498 63.12051 65.640533 69.640564">use cases, usability </tspan><tspan
         style="font-style:normal;font-variant:normal;font-weight:normal;font-stretch:normal;font-family:Roboto;-inkscape-font-specification:Roboto;"
         id="tspan414"
         sodipodi:role="line"
         y="9.6000776"
         x="-1.0400084 3.5520287 8.1440659 12.440101 14.216115 18.216146 20.440165 24.7362 29.184237 33.928276 36.152294 40.896332 43.560352 45.336369 49.784401 54.080437 55.856453 60.600491 62.376503 66.672539">goals and principles</tspan></text><g
       id="g418"><g
         clip-path="url(#clipPath424)"
         id="g420"><g
           transform="translate(341.3555,451.7241)"
           id="g426"><path
             id="path428"
             style="fill:#77c4d3;fill-opacity:1;fill-rule:nonzero;stroke:none;"
             d="m 0,0 c 6.089,-6.088 6.089,-15.959 0.001,-22.047 -6.089,-6.089 -15.96,-6.09 -22.049,0 -6.089,6.088 -6.088,15.959 10e-4,22.047 C -15.959,6.089 -6.089,6.089 0,0" /></g></g></g><text
       id="text432"
       style="font-variant:normal;font-weight:normal;font-stretch:normal;font-size:14px;font-family:Roboto;-inkscape-font-specification:Roboto;writing-mode:lr-tb;fill:#ffffff;fill-opacity:1;fill-rule:nonzero;stroke:none;font-style:normal;"
       transform="matrix(0.70710678,0.70710678,0.70710678,-0.70710678,331.1443,434.4388)"><tspan
         style="font-style:normal;font-variant:normal;font-weight:normal;font-stretch:normal;font-family:Roboto;-inkscape-font-specification:Roboto;"
         id="tspan430"
         y="0"
         x="0">1</tspan></text><text
       id="text436"
       style="font-variant:normal;font-weight:normal;font-stretch:normal;font-size:8.00006px;font-family:Roboto;-inkscape-font-specification:Roboto;writing-mode:lr-tb;fill:#000000;fill-opacity:1;fill-rule:nonzero;stroke:none;font-style:normal;"
       transform="matrix(0.70710678,0.70710678,0.70710678,-0.70710678,324.2112,395.2171)"><tspan
         style="font-style:normal;font-variant:normal;font-weight:normal;font-stretch:normal;font-family:Roboto;-inkscape-font-specification:Roboto;"
         id="tspan434"
         sodipodi:role="line"
         y="0"
         x="0 4.4480362 8.8960724 13.64011 17.936146 20.600166 24.600199 27.12022 31.416254 35.864288 40.60833 42.384342 46.832378 51.424416 53.648434 58.09647 62.0965 66.39254 69.056557">understanding users</tspan></text><text
       id="text440"
       style="font-style:normal;font-variant:normal;font-weight:normal;font-stretch:normal;font-size:8px;font-family:Roboto;-inkscape-font-specification:Roboto;writing-mode:lr-tb;fill:#000000;fill-opacity:1;fill-rule:nonzero;stroke:none"
       transform="matrix(1,0,0,-1,44.856,515.0015)"><tspan
         style="font-style:normal;font-variant:normal;font-weight:500;font-stretch:normal;font-family:Roboto;-inkscape-font-specification:'Roboto Medium'"
         y="0"
         id="tspan438"
         sodipodi:role="line"
         x="0 4.1440001 8.592 12.888">nal</tspan></text><text
       id="text444"
       style="font-style:normal;font-variant:normal;font-weight:normal;font-stretch:normal;font-size:8px;font-family:Roboto;-inkscape-font-specification:Roboto;writing-mode:lr-tb;fill:#000000;fill-opacity:1;fill-rule:nonzero;stroke:none"
       transform="matrix(1,0,0,-1,23.072,505.4015)"><tspan
         style="font-style:normal;font-variant:normal;font-weight:500;font-stretch:normal;font-family:Roboto;-inkscape-font-specification:'Roboto Medium'"
         id="tspan442"
         sodipodi:role="line"
         y="0"
         x="0 4.296 8.2959995 12.592 14.368 18.816 23.112 25.632 27.408001 32">evaluation</tspan></text><text
       id="text448"
       style="font-style:normal;font-variant:normal;font-weight:normal;font-stretch:normal;font-size:35.9997px;font-family:Roboto;-inkscape-font-specification:Roboto;writing-mode:lr-tb;fill:#77c4d3;fill-opacity:1;fill-rule:nonzero;stroke:none"
       transform="matrix(0.71644437,0.69764423,0.69764423,-0.71644437,107.444,502.4769)"><tspan
         style="font-style:normal;font-variant:normal;font-weight:900;font-stretch:normal;font-family:Roboto;-inkscape-font-specification:'Roboto Heavy'"
         id="tspan446"
         sodipodi:role="line"
         y="0"
         x="0 31.859756 65.735497 97.595253 122.14706 153.35883 183.92259 201.74246">ANALYSIS</tspan></text><text
       id="text452"
       style="font-style:normal;font-variant:normal;font-weight:normal;font-stretch:normal;font-size:35.9999px;font-family:Roboto;-inkscape-font-specification:Roboto;writing-mode:lr-tb;fill:#3c87c8;fill-opacity:1;fill-rule:nonzero;stroke:none"
       transform="matrix(0.71063268,-0.70356321,-0.70356321,-0.71063268,536.511,638.6923)"><tspan
         style="font-style:normal;font-variant:normal;font-weight:900;font-stretch:normal;font-family:Roboto;-inkscape-font-specification:'Roboto Heavy'"
         id="tspan450"
         sodipodi:role="line"
         y="0"
         x="0 33.8759 64.403809 94.967712 112.78767 147.31155">DESIGN</tspan></text><g
       id="g454"><g
         clip-path="url(#clipPath460)"
         id="g456"><text
           id="text464"
           style="font-variant:normal;font-weight:bold;font-stretch:normal;font-size:35.9999px;font-family:'TUM Neue Helvetica 75 Bold';-inkscape-font-specification:TUMNeueHelvetica-Bold;writing-mode:lr-tb;fill:#23313d;fill-opacity:1;fill-rule:nonzero;stroke:none"
           transform="matrix(0.71166285,-0.70252116,-0.70252116,-0.71166285,12.7168,210.4955)"><tspan
             style="font-style:normal;font-variant:normal;font-weight:900;font-stretch:normal;font-family:Roboto;-inkscape-font-specification:'Roboto Heavy'"
             id="tspan462"
             sodipodi:role="line"
             y="0"
             x="0 30.527925 58.751858 90.611778 119.15971 153.03563 182.23155 211.42749 229.24744 264.45535">EVALUATION</tspan></text></g></g><text
       id="text470"
       style="font-style:normal;font-variant:normal;font-weight:normal;font-stretch:normal;font-size:36.0001px;font-family:Roboto;-inkscape-font-specification:Roboto;writing-mode:lr-tb;fill:#3c87c8;fill-opacity:1;fill-rule:nonzero;stroke:none"
       transform="matrix(0.72890973,0.68460982,0.68460982,-0.72890973,539.4004,41.0942)"><tspan
         style="font-style:normal;font-variant:normal;font-weight:900;font-stretch:normal;font-family:Roboto;-inkscape-font-specification:'Roboto Heavy'"
         id="tspan466"
         sodipodi:role="line"
         y="0"
         x="0 17.820034 57.672108 88.884171 117.43222 147.96028 187.81236 218.34041">IMPLEMEN</tspan><tspan
         style="font-style:normal;font-variant:normal;font-weight:900;font-stretch:normal;font-family:Roboto;-inkscape-font-specification:'Roboto Heavy'"
         id="tspan468"
         sodipodi:role="line"
         y="43.200081"
         x="40.176075 66.70813 95.904182 125.10023 142.92027 178.12834">TATION</tspan></text><g
       id="g472"><g
         clip-path="url(#clipPath478)"
         id="g474"><g
           transform="translate(433.7109,362.877)"
           id="g480"><path
             id="path482"
             style="fill:#a8a8a8;fill-opacity:1;fill-rule:nonzero;stroke:none;"
             d="m 0,0 c 0,-23.486 -19.04,-42.529 -42.529,-42.529 -23.488,0 -42.531,19.043 -42.531,42.529 0,23.488 19.043,42.529 42.531,42.529 C -19.04,42.529 0,23.488 0,0" /></g></g></g><text
       id="text486"
       style="font-style:normal;font-variant:normal;font-weight:normal;font-stretch:normal;font-size:14px;font-family:Roboto;-inkscape-font-specification:Roboto;writing-mode:lr-tb;fill:#ffffff;fill-opacity:1;fill-rule:nonzero;stroke:none"
       transform="matrix(1,0,0,-1,372.2959,364.3262)"><tspan
         x="0 9.3380003 19.445999 28.518"
         y="0"
         style="font-style:normal;font-variant:normal;font-weight:bold;font-stretch:normal;font-family:Roboto;-inkscape-font-specification:'Roboto Bold'"
         id="tspan484"
         sodipodi:role="line">PREP</tspan></text><text
       id="text490"
       style="font-style:normal;font-variant:normal;font-weight:normal;font-stretch:normal;font-size:8px;font-family:Roboto;-inkscape-font-specification:Roboto;writing-mode:lr-tb;fill:#000000;fill-opacity:1;fill-rule:nonzero;stroke:none"
       transform="matrix(1,0,0,-1,374.4365,353.415)"><tspan
         style="font-style:normal;font-variant:normal;font-weight:500;font-stretch:normal;font-family:Roboto;-inkscape-font-specification:'Roboto Medium'"
         id="tspan488"
         sodipodi:role="line"
         y="0"
         x="0 4.592 8.8879995 11.408 13.632 16.152 20.448 24.743999 29.488001">get ready</tspan></text><g
       id="g492"><g
         clip-path="url(#clipPath498)"
         id="g494"><g
           transform="translate(396.375,326.7539)"
           id="g500"><path
             id="path502"
             style="fill:none;stroke:#a8a8a8;stroke-width:12;stroke-linecap:butt;stroke-linejoin:miter;stroke-miterlimit:10;stroke-dasharray:none;stroke-opacity:1;"
             d="M 0,0 C -103.375,-7.667 -88.598,15 -91.984,48.813" /></g><g
           transform="translate(295.5693,368.4248)"
           id="g504"><path
             id="path506"
             style="fill:#ffffff;fill-opacity:1;fill-rule:nonzero;stroke:none;"
             d="M 0,0 8.875,5 17.589,-0.153 17.643,4.964 8.875,10.149 0,5.149" /></g><g
           transform="translate(339.3823,317.8955)"
           id="g508"><path
             id="path510"
             style="fill:#ffffff;fill-opacity:1;fill-rule:nonzero;stroke:none;"
             d="M 0,0 -3.936,9.396 2.194,17.452 -2.882,18.1 -9.051,9.993 -5.115,0.598" /></g><g
           transform="translate(379.0244,244.21)"
           id="g512"><path
             id="path514"
             style="fill:#ffffff;fill-opacity:1;fill-rule:nonzero;stroke:none;"
             d="m 0,0 -5,8.875 5.153,8.714 -5.117,0.054 -5.185,-8.768 5,-8.875" /></g><g
           transform="translate(379.0244,187.9287)"
           id="g516"><path
             id="path518"
             style="fill:#ffffff;fill-opacity:1;fill-rule:nonzero;stroke:none;"
             d="m 0,0 -5,8.875 5.153,8.714 -5.117,0.054 -5.185,-8.768 5,-8.875" /></g><g
           transform="translate(379.0244,131.1787)"
           id="g520"><path
             id="path522"
             style="fill:#ffffff;fill-opacity:1;fill-rule:nonzero;stroke:none;"
             d="m 0,0 -5,8.875 5.153,8.714 -5.117,0.054 -5.185,-8.768 5,-8.875" /></g><g
           transform="translate(379.0244,74.8037)"
           id="g524"><path
             id="path526"
             style="fill:#ffffff;fill-opacity:1;fill-rule:nonzero;stroke:none;"
             d="m 0,0 -5,8.875 5.153,8.714 -5.117,0.054 -5.185,-8.768 5,-8.875" /></g><g
           transform="translate(386.2256,475.9824)"
           id="g528"><path
             id="path530"
             style="fill:#ffffff;fill-opacity:1;fill-rule:nonzero;stroke:none;"
             d="m 0,0 5,-8.875 -5.153,-8.714 5.117,-0.054 5.185,8.768 -5,8.875" /></g><g
           transform="translate(386.2256,532.2637)"
           id="g532"><path
             id="path534"
             style="fill:#ffffff;fill-opacity:1;fill-rule:nonzero;stroke:none;"
             d="m 0,0 5,-8.875 -5.153,-8.714 5.117,-0.054 5.185,8.768 -5,8.875" /></g><g
           transform="translate(386.2256,589.0137)"
           id="g536"><path
             id="path538"
             style="fill:#ffffff;fill-opacity:1;fill-rule:nonzero;stroke:none;"
             d="m 0,0 5,-8.875 -5.153,-8.714 5.117,-0.054 5.185,8.768 -5,8.875" /></g><g
           transform="translate(386.2256,645.3887)"
           id="g540"><path
             id="path542"
             style="fill:#ffffff;fill-opacity:1;fill-rule:nonzero;stroke:none;"
             d="m 0,0 5,-8.875 -5.153,-8.714 5.117,-0.054 5.185,8.768 -5,8.875" /></g><g
           transform="translate(498.2588,371.3242)"
           id="g544"><path
             id="path546"
             style="fill:#ffffff;fill-opacity:1;fill-rule:nonzero;stroke:none;"
             d="m 0,0 -8.875,-5 -8.714,5.153 -0.054,-5.117 8.768,-5.185 8.875,5" /></g><g
           transform="translate(554.54,371.3242)"
           id="g548"><path
             id="path550"
             style="fill:#ffffff;fill-opacity:1;fill-rule:nonzero;stroke:none;"
             d="m 0,0 -8.875,-5 -8.714,5.153 -0.054,-5.117 8.768,-5.185 8.875,5" /></g><g
           transform="translate(611.29,371.3242)"
           id="g552"><path
             id="path554"
             style="fill:#ffffff;fill-opacity:1;fill-rule:nonzero;stroke:none;"
             d="m 0,0 -8.875,-5 -8.714,5.153 -0.054,-5.117 8.768,-5.185 8.875,5" /></g><g
           transform="translate(667.665,371.3242)"
           id="g556"><path
             id="path558"
             style="fill:#ffffff;fill-opacity:1;fill-rule:nonzero;stroke:none;"
             d="m 0,0 -8.875,-5 -8.714,5.153 -0.054,-5.117 8.768,-5.185 8.875,5" /></g></g></g></g></svg>
