<?xml version="1.0" encoding="utf-8"?>
<!-- Generator: Adobe Illustrator 16.0.3, SVG Export Plug-In . SVG Version: 6.00 Build 0)  -->
<!DOCTYPE svg PUBLIC "-//W3C//DTD SVG 1.1//EN" "http://www.w3.org/Graphics/SVG/1.1/DTD/svg11.dtd">
<svg version="1.1" id="Ebene_1" xmlns="http://www.w3.org/2000/svg" xmlns:xlink="http://www.w3.org/1999/xlink" x="0px" y="0px"
	 width="745.447px" height="705.869px" viewBox="0 0 745.447 705.869" enable-background="new 0 0 745.447 705.869"
	 xml:space="preserve">
<g>
	<line fill="none" stroke="#C6C6C6" stroke-width="12" stroke-miterlimit="10" x1="77.945" y1="332.446" x2="77.945" y2="47.389"/>
	<circle fill="#706F6F" cx="77.945" cy="47.388" r="38.349"/>
	<circle fill="#706F6F" cx="77.945" cy="192.975" r="15.591"/>
</g>
<g>
	<g>
		<g>
			<path fill="none" stroke="#CCCCCC" stroke-width="12" stroke-miterlimit="10" d="M134.376,330.612c0,0-0.023-1.515-0.069-4.45
				c-0.021-2.938-0.151-7.294,0.136-13.005c0.401-11.386,1.689-28.285,6.769-49.291c2.445-10.517,6.06-21.969,10.86-34.121
				c1.25-3.016,2.458-6.133,3.877-9.223c1.421-3.087,2.894-6.229,4.418-9.42c1.608-3.143,3.295-6.321,5.023-9.553
				c1.741-3.224,3.692-6.395,5.618-9.66c7.898-12.93,17.481-26.021,28.971-38.673c11.497-12.629,24.849-24.896,40.252-35.889
				c15.375-11.01,32.714-20.856,51.766-28.778c19.042-7.917,39.853-13.691,61.646-16.936c2.722-0.468,5.463-0.719,8.216-1.047
				c2.752-0.296,5.521-0.631,8.297-0.854c2.778-0.173,5.566-0.347,8.362-0.521c1.4-0.075,2.803-0.149,4.208-0.224
				c1.406-0.021,2.815-0.044,4.226-0.065c2.826-0.021,5.66-0.039,8.504-0.058c2.848,0.046,5.711,0.184,8.58,0.298
				c5.744,0.164,11.519,0.791,17.331,1.343c11.595,1.404,23.328,3.348,34.952,6.382c1.456,0.368,2.914,0.737,4.374,1.106
				s2.896,0.829,4.346,1.247c2.894,0.878,5.791,1.758,8.696,2.64c2.874,0.972,5.742,1.995,8.617,3.024
				c1.435,0.521,2.88,1.026,4.307,1.576l4.259,1.728c22.771,9.18,44.634,21.813,64.629,37.469c2.478,1.982,4.949,3.986,7.413,6.011
				c2.436,2.055,4.801,4.199,7.19,6.327c1.187,1.074,2.394,2.13,3.555,3.233l3.452,3.353l3.438,3.384
				c1.148,1.128,2.285,2.27,3.375,3.457c2.206,2.352,4.4,4.724,6.583,7.115c2.161,2.41,4.223,4.915,6.318,7.398
				c1.037,1.251,2.094,2.49,3.105,3.763l2.984,3.872l2.963,3.9c0.989,1.301,1.967,2.612,2.89,3.965
				c1.875,2.685,3.734,5.388,5.578,8.108c1.817,2.738,3.524,5.557,5.266,8.357c0.858,1.408,1.74,2.805,2.566,4.235l2.429,4.325
				l2.402,4.353c0.806,1.45,1.587,2.913,2.313,4.406c1.486,2.97,2.954,5.957,4.401,8.958c1.414,3.016,2.711,6.092,4.041,9.157
				c0.651,1.539,1.329,3.069,1.944,4.624l1.79,4.692l1.758,4.712c0.589,1.571,1.159,3.15,1.663,4.751
				c1.044,3.19,2.065,6.395,3.064,9.608c0.978,3.22,1.802,6.482,2.674,9.739l1.262,4.899l1.081,4.939
				c0.688,3.299,1.442,6.6,2.01,9.923c2.404,13.295,3.731,26.75,4.28,40.214c0.338,13.465-0.104,27.048-1.651,40.601
				c-0.352,3.389-0.895,6.763-1.372,10.143l-0.769,5.063l-0.951,5.038c-0.667,3.354-1.29,6.72-2.066,10.051
				c-0.801,3.325-1.627,6.648-2.479,9.965c-0.408,1.664-0.883,3.309-1.377,4.946l-1.479,4.918l-1.516,4.909
				c-0.525,1.629-1.113,3.234-1.677,4.852c-1.154,3.222-2.279,6.459-3.526,9.644c-1.28,3.169-2.586,6.331-3.915,9.482
				c-0.648,1.585-1.354,3.14-2.082,4.684l-2.179,4.637l-2.213,4.622c-0.755,1.529-1.568,3.027-2.358,4.539
				c-1.605,3.007-3.185,6.035-4.877,8.99c-1.721,2.938-3.463,5.862-5.227,8.774c-0.867,1.466-1.789,2.893-2.729,4.309l-2.811,4.252
				l-2.843,4.229c-0.968,1.395-1.979,2.755-2.975,4.128c-2.012,2.729-3.995,5.482-6.085,8.146c-2.111,2.646-4.242,5.274-6.392,7.886
				c-1.063,1.318-2.172,2.593-3.297,3.853l-3.368,3.783l-3.396,3.756c-1.145,1.237-2.336,2.431-3.509,3.642
				c-2.363,2.401-4.71,4.822-7.134,7.155c-2.452,2.303-4.921,4.588-7.403,6.853c-20.028,17.919-42.443,32.943-66.298,44.425
				l-4.467,2.156c-1.499,0.693-3.019,1.342-4.528,2.006c-3.026,1.313-6.054,2.618-9.096,3.87c-3.068,1.184-6.145,2.341-9.222,3.475
				c-1.542,0.557-3.07,1.151-4.626,1.658c-1.558,0.505-3.111,1.009-4.666,1.513c-12.415,4.112-25.061,7.084-37.665,9.445
				c-6.315,1.029-12.623,2.117-18.916,2.724c-3.146,0.335-6.291,0.688-9.424,0.944c-3.129,0.208-6.254,0.394-9.373,0.559
				c-1.56,0.077-3.117,0.153-4.673,0.23c-1.557,0.021-3.111,0.043-4.663,0.063c-3.105,0.031-6.205,0.041-9.296,0.03
				c-3.093-0.043-6.187-0.206-9.267-0.336c-3.082-0.161-6.154-0.252-9.217-0.566c-24.503-2.01-48.329-6.964-70.479-14.514
				c-22.16-7.552-42.695-17.479-61.188-28.97c-18.524-11.473-34.918-24.619-49.272-38.444
				c-14.35-13.846-26.605-28.446-36.925-43.083c-2.532-3.693-5.073-7.304-7.387-10.977c-2.304-3.682-4.546-7.32-6.696-10.93
				c-2.065-3.659-4.063-7.275-5.989-10.846c-1.924-3.57-3.623-7.178-5.345-10.685c-6.692-14.117-11.918-27.597-15.712-40.063
				c-7.782-24.915-10.721-45.37-12.134-59.205c-0.793-6.946-1.013-12.263-1.22-15.855c-0.177-3.593-0.268-5.446-0.268-5.446"/>
			<path fill="none" stroke="#CCCCCC" stroke-width="12" stroke-miterlimit="10" d="M191.069,330.8c0,0-0.026-1.173-0.081-3.444
				c-0.036-2.274-0.195-5.654-0.002-10.07c0.208-8.817,1.064-21.884,4.826-38.159c1.786-8.155,4.516-17.033,8.125-26.485
				c0.952-2.343,1.844-4.776,2.924-7.179c1.096-2.401,2.21-4.849,3.348-7.341c1.253-2.439,2.527-4.923,3.826-7.45
				c1.318-2.52,2.828-4.985,4.287-7.545c6.035-10.105,13.387-20.369,22.238-30.315c8.859-9.927,19.165-19.614,31.104-28.296
				c11.912-8.703,25.361-16.515,40.167-22.852c14.804-6.331,31.014-10.979,48.065-13.699c2.127-0.401,4.279-0.597,6.438-0.878
				c2.157-0.249,4.325-0.546,6.506-0.738c2.184-0.154,4.373-0.31,6.569-0.465c1.103-0.071,2.204-0.144,3.31-0.217
				c1.104-0.023,2.213-0.048,3.321-0.072c2.225-0.039,4.453-0.077,6.69-0.116c2.238,0.017,4.486,0.114,6.744,0.18
				c4.52,0.065,9.05,0.551,13.623,0.92c9.106,1.038,18.342,2.443,27.485,4.76l3.444,0.829c1.151,0.274,2.278,0.637,3.421,0.954
				c2.279,0.666,4.564,1.334,6.854,2.003c2.259,0.772,4.522,1.547,6.792,2.323c1.132,0.399,2.273,0.779,3.4,1.201l3.357,1.335
				c17.979,7.047,35.303,16.856,51.214,29.078c1.965,1.563,3.933,3.127,5.902,4.693c1.938,1.606,3.814,3.293,5.725,4.955
				c0.945,0.84,1.913,1.661,2.839,2.526l2.747,2.633l2.745,2.65c0.92,0.881,1.83,1.772,2.694,2.71
				c1.751,1.857,3.505,3.719,5.26,5.582c1.729,1.89,3.365,3.866,5.047,5.813c0.83,0.982,1.681,1.951,2.491,2.952l2.381,3.048
				l2.375,3.065c0.797,1.02,1.582,2.05,2.315,3.118c1.489,2.124,2.98,4.25,4.474,6.379c1.459,2.153,2.817,4.379,4.221,6.582
				c0.689,1.108,1.405,2.205,2.068,3.332l1.943,3.411l1.936,3.427c0.652,1.14,1.284,2.292,1.863,3.472
				c1.183,2.353,2.364,4.706,3.55,7.062c1.142,2.378,2.176,4.809,3.257,7.226c0.526,1.214,1.082,2.418,1.578,3.646l1.44,3.707
				l1.43,3.721c0.48,1.238,0.948,2.484,1.351,3.752l2.497,7.593c0.799,2.544,1.459,5.13,2.18,7.705l1.042,3.875l0.883,3.913
				c0.562,2.615,1.203,5.226,1.668,7.863c2,10.542,3.131,21.239,3.679,31.976c0.338,10.736,0.095,21.563-1.05,32.362
				c-0.25,2.7-0.68,5.385-1.031,8.08l-0.568,4.039l-0.731,4.014c-0.517,2.671-0.974,5.358-1.573,8.016l-1.91,7.95
				c-0.307,1.33-0.677,2.641-1.063,3.947l-1.148,3.926l-1.168,3.923c-0.405,1.302-0.872,2.582-1.311,3.873
				c-0.904,2.572-1.769,5.165-2.742,7.711c-1.021,2.531-2.042,5.061-3.063,7.587c-0.501,1.271-1.055,2.516-1.631,3.748l-1.711,3.715
				l-1.729,3.705c-0.592,1.228-1.238,2.425-1.86,3.637c-1.269,2.408-2.497,4.844-3.832,7.215c-1.375,2.35-2.749,4.698-4.122,7.043
				c-0.678,1.182-1.408,2.326-2.152,3.462l-2.224,3.416l-2.239,3.406c-0.765,1.122-1.569,2.212-2.357,3.315
				c-1.598,2.192-3.155,4.418-4.813,6.563c-1.691,2.12-3.382,4.237-5.068,6.353c-0.837,1.066-1.721,2.091-2.615,3.104l-2.677,3.049
				l-2.69,3.036c-0.908,1-1.86,1.957-2.792,2.935c-1.883,1.936-3.74,3.897-5.668,5.783c-1.967,1.848-3.931,3.693-5.893,5.536
				c-15.944,14.482-33.819,26.684-52.885,36.032l-3.564,1.766c-1.198,0.565-2.415,1.088-3.622,1.629
				c-2.422,1.068-4.84,2.141-7.271,3.17c-2.466,0.947-4.925,1.895-7.379,2.837c-1.233,0.455-2.454,0.954-3.7,1.364l-3.736,1.235
				c-9.937,3.396-20.08,5.829-30.199,7.823c-5.077,0.848-10.14,1.796-15.208,2.302c-2.533,0.285-5.063,0.599-7.588,0.826
				c-2.527,0.166-5.047,0.334-7.56,0.5c-1.259,0.073-2.516,0.147-3.771,0.223c-1.257,0.023-2.511,0.048-3.764,0.071
				c-2.51,0.028-5.011,0.059-7.504,0.088c-2.496-0.016-4.989-0.142-7.477-0.224c-2.484-0.114-4.968-0.148-7.436-0.396
				c-19.762-1.487-38.988-5.314-56.899-11.278c-17.915-5.967-34.562-13.856-49.591-23.042
				c-15.058-9.162-28.406-19.729-40.123-30.852c-11.711-11.143-21.735-22.914-30.19-34.729c-2.065-2.985-4.164-5.892-6.058-8.859
				c-1.881-2.979-3.725-5.915-5.497-8.827c-1.687-2.961-3.325-5.886-4.917-8.768c-1.587-2.884-2.969-5.808-4.393-8.641
				c-5.501-11.419-9.841-22.321-12.977-32.428c-6.465-20.185-8.972-36.807-10.19-48.072c-0.7-5.651-0.888-9.99-1.081-12.919
				c-0.168-2.932-0.256-4.443-0.256-4.443"/>
			<path fill="none" stroke="#CCCCCC" stroke-width="12" stroke-miterlimit="10" d="M247.76,330.989c0,0-0.032-0.831-0.094-2.441
				c-0.051-1.61-0.24-4.014-0.141-7.135c0.017-6.249,0.44-15.482,2.886-27.026c1.126-5.797,2.97-12.097,5.39-18.853
				c0.655-1.667,1.229-3.418,1.973-5.134c0.744-1.721,1.502-3.477,2.275-5.262c0.86-1.751,1.736-3.535,2.627-5.349
				c0.898-1.815,1.965-3.578,2.958-5.431c4.171-7.283,9.292-14.717,15.505-21.96c6.221-7.222,13.481-14.33,21.953-20.703
				c8.447-6.395,18.01-12.171,28.57-16.924c10.563-4.745,22.174-8.267,34.485-10.463c1.532-0.336,3.096-0.477,4.656-0.709
				c1.563-0.202,3.132-0.461,4.715-0.626c1.588-0.137,3.181-0.271,4.779-0.408l2.406-0.21l2.421-0.08
				c1.62-0.058,3.245-0.116,4.877-0.174c1.63-0.014,3.264,0.046,4.906,0.062c3.297-0.034,6.582,0.313,9.917,0.498
				c6.621,0.671,13.354,1.538,20.02,3.139l2.517,0.553c0.843,0.179,1.661,0.442,2.496,0.66c1.666,0.455,3.337,0.909,5.011,1.366
				c1.652,0.539,3.309,1.079,4.968,1.621c0.829,0.276,1.67,0.531,2.494,0.826l2.457,0.944c13.188,4.915,25.975,11.9,37.802,20.687
				c1.462,1.125,2.926,2.25,4.392,3.378c1.442,1.159,2.83,2.389,4.258,3.583c0.704,0.607,1.435,1.192,2.122,1.819l2.043,1.912
				l2.052,1.917c0.691,0.634,1.375,1.278,2.016,1.963l3.937,4.048c1.296,1.371,2.509,2.818,3.774,4.229
				c0.623,0.714,1.268,1.413,1.875,2.141l1.779,2.224l1.785,2.229c0.604,0.74,1.198,1.487,1.742,2.271l3.369,4.648
				c1.102,1.57,2.109,3.202,3.176,4.806c0.521,0.811,1.07,1.604,1.569,2.43l1.461,2.497l1.467,2.502
				c0.5,0.831,0.981,1.671,1.413,2.538l2.696,5.164c0.869,1.74,1.642,3.526,2.473,5.294c0.401,0.889,0.836,1.768,1.213,2.669
				l1.095,2.721l1.098,2.727c0.375,0.908,0.737,1.821,1.039,2.754l1.929,5.577c0.621,1.87,1.117,3.777,1.687,5.67l0.822,2.852
				l0.684,2.888c0.436,1.931,0.962,3.853,1.326,5.802c1.596,7.788,2.528,15.729,3.077,23.737c0.338,8.008,0.291,16.078-0.448,24.124
				c-0.149,2.016-0.465,4.009-0.689,6.02l-0.369,3.015l-0.514,2.989c-0.363,1.989-0.657,4.001-1.08,5.98l-1.341,5.936
				c-0.206,0.995-0.473,1.974-0.753,2.947l-0.818,2.935l-0.818,2.938c-0.287,0.976-0.633,1.929-0.945,2.896
				c-0.654,1.923-1.256,3.871-1.958,5.778l-2.21,5.689c-0.354,0.957-0.757,1.891-1.182,2.813l-1.242,2.789l-1.246,2.791
				c-0.428,0.925-0.908,1.82-1.36,2.732c-0.932,1.81-1.811,3.652-2.788,5.438c-1.007,1.773-2.013,3.546-3.018,5.314
				c-0.488,0.896-1.028,1.759-1.579,2.613l-1.635,2.581l-1.638,2.582c-0.562,0.849-1.162,1.669-1.741,2.506
				c-1.183,1.655-2.316,3.353-3.542,4.977c-1.25,1.608-2.498,3.216-3.745,4.819c-0.611,0.815-1.269,1.591-1.936,2.357l-1.983,2.314
				l-1.985,2.315c-0.672,0.763-1.386,1.482-2.076,2.228c-1.4,1.469-2.77,2.975-4.201,4.411c-1.463,1.409-2.923,2.815-4.382,4.221
				c-11.859,11.05-25.197,20.426-39.47,27.642l-2.666,1.373c-0.897,0.438-1.813,0.836-2.716,1.254
				c-1.819,0.824-3.635,1.646-5.445,2.468c-1.85,0.735-3.695,1.469-5.537,2.2c-0.926,0.354-1.838,0.756-2.774,1.071l-2.81,0.959
				c-7.455,2.679-15.099,4.572-22.73,6.201c-3.838,0.664-7.656,1.472-11.502,1.878c-1.919,0.235-3.834,0.511-5.75,0.709
				c-1.922,0.146-3.837,0.295-5.746,0.44l-2.867,0.216l-2.863,0.078c-1.91,0.048-3.813,0.096-5.713,0.145
				c-1.898,0.014-3.792-0.074-5.684-0.109c-1.891-0.067-3.784-0.046-5.656-0.229c-15.021-0.964-29.647-3.663-43.318-8.043
				c-13.67-4.382-26.428-10.237-37.994-17.113c-23.167-13.796-41.276-31.676-54.431-49.631c-1.599-2.28-3.254-4.48-4.726-6.746
				c-1.458-2.28-2.891-4.522-4.299-6.726c-1.307-2.271-2.587-4.5-3.846-6.688c-1.251-2.196-2.314-4.438-3.441-6.597
				c-4.311-8.722-7.766-17.048-10.239-24.793c-5.146-15.452-7.222-28.242-8.249-36.938c-0.605-4.357-0.765-7.72-0.942-9.984
				c-0.161-2.268-0.244-3.438-0.244-3.438"/>
			<path fill="none" stroke="#CCCCCC" stroke-width="12" stroke-miterlimit="10" d="M304.454,331.177c0,0-0.035-0.489-0.105-1.438
				c-0.065-0.948-0.284-2.373-0.278-4.2c-0.177-3.68-0.185-9.082,0.942-15.894c0.466-3.437,1.425-7.16,2.652-11.217
				c0.357-0.994,0.614-2.063,1.021-3.091c0.412-1.025,0.813-2.086,1.203-3.183c0.477-1.052,0.965-2.127,1.429-3.246
				c0.478-1.112,1.102-2.17,1.628-3.315c4.604-8.891,11.597-18.493,21.574-26.714c4.985-4.086,10.659-7.828,16.975-10.996
				c6.324-3.158,13.333-5.553,20.904-7.227c0.938-0.27,1.911-0.354,2.876-0.54c0.97-0.155,1.938-0.376,2.923-0.513
				c0.991-0.104,1.986-0.222,2.988-0.352l1.508-0.203l1.518-0.088c1.015-0.063,2.034-0.142,3.063-0.231
				c1.021-0.042,2.04-0.022,3.071-0.058c2.073-0.132,4.113,0.072,6.209,0.075c4.135,0.306,8.368,0.633,12.552,1.518l1.589,0.274
				c0.533,0.084,1.043,0.25,1.569,0.367c1.047,0.255,2.103,0.499,3.17,0.731c1.045,0.305,2.092,0.61,3.141,0.918
				c0.526,0.153,1.064,0.282,1.589,0.449l1.559,0.553c8.396,2.781,16.644,6.942,24.386,12.295c0.947,0.693,1.907,1.381,2.881,2.062
				c0.947,0.711,1.847,1.483,2.791,2.211c0.464,0.374,0.954,0.724,1.406,1.113l1.338,1.192l1.359,1.183
				c0.463,0.387,0.919,0.782,1.334,1.216c0.856,0.843,1.728,1.682,2.612,2.515c0.863,0.852,1.651,1.77,2.504,2.644
				c0.414,0.445,0.854,0.874,1.26,1.33l1.177,1.399l1.198,1.395c0.409,0.459,0.813,0.925,1.167,1.423
				c12.327,15.351,20.352,34.763,22.125,55.91c0.338,5.28,0.487,10.592,0.152,15.885c-0.049,1.329-0.249,2.632-0.348,3.958
				l-0.17,1.988l-0.295,1.966c-0.212,1.309-0.341,2.641-0.586,3.946l-0.772,3.919c-0.104,0.662-0.269,1.308-0.44,1.95l-0.488,1.939
				l-0.472,1.951c-0.167,0.648-0.392,1.277-0.579,1.919c-0.404,1.273-0.744,2.576-1.173,3.847l-1.358,3.793
				c-0.205,0.645-0.459,1.267-0.729,1.882l-0.776,1.862l-0.762,1.877c-0.265,0.621-0.579,1.218-0.862,1.829
				c-0.593,1.211-1.123,2.461-1.742,3.663l-1.913,3.583c-0.299,0.611-0.647,1.192-1.006,1.768l-1.046,1.745l-1.034,1.758
				c-0.357,0.577-0.755,1.127-1.127,1.694c-0.767,1.119-1.478,2.287-2.27,3.393l-2.422,3.286c-0.388,0.563-0.816,1.091-1.256,1.609
				l-1.291,1.581l-1.28,1.597c-0.436,0.523-0.909,1.011-1.36,1.521c-0.919,1.002-1.799,2.05-2.733,3.039l-2.87,2.904
				c-7.776,7.614-16.574,14.166-26.058,19.249l-1.766,0.981c-0.597,0.312-1.208,0.582-1.811,0.88
				c-1.21,0.589-2.416,1.178-3.62,1.765c-1.233,0.521-2.466,1.044-3.693,1.563c-0.618,0.255-1.222,0.558-1.852,0.777l-1.88,0.682
				c-4.975,1.963-10.119,3.319-15.265,4.581c-2.6,0.481-5.173,1.146-7.795,1.455c-1.307,0.188-2.606,0.421-3.914,0.59
				c-1.314,0.129-2.626,0.257-3.934,0.384l-1.964,0.209l-1.963,0.085c-1.312,0.066-2.619,0.134-3.922,0.2
				c-1.303,0.042-2.596-0.009-3.893,0.004c-1.293-0.021-2.6,0.057-3.876-0.061c-10.279-0.438-20.307-2.013-29.737-4.806
				c-9.425-2.798-18.295-6.618-26.398-11.188c-16.228-9.173-29.113-21.369-38.548-33.683c-1.132-1.573-2.345-3.069-3.396-4.631
				c-1.051-1.567-2.085-3.109-3.101-4.623c-0.941-1.564-1.866-3.103-2.773-4.609c-0.915-1.51-1.661-3.066-2.491-4.551
				c-3.119-6.023-5.688-11.773-7.503-17.158c-3.83-10.722-5.472-19.68-6.307-25.808c-0.513-3.063-0.643-5.447-0.806-7.05
				c-0.152-1.604-0.23-2.435-0.23-2.435"/>
		</g>
	</g>
</g>
<g>
	<line fill="none" stroke="#706F6F" stroke-width="3" stroke-miterlimit="10" x1="247.549" y1="332.446" x2="0" y2="332.446"/>
	<circle fill="#706F6F" cx="247.549" cy="331.445" r="18.425"/>
	<circle fill="#706F6F" cx="191.505" cy="331.445" r="18.425"/>
	<circle fill="#706F6F" cx="134.912" cy="331.445" r="18.425"/>
	<circle fill="#706F6F" cx="77.945" cy="331.445" r="18.425"/>
</g>
<g>
	<path fill="none" d="M388.071,40.981"/>
</g>
<g>
	<path fill="none" d="M693,321.948"/>
</g>
<g>
	<path fill="none" d="M106.212,324.445"/>
</g>
<g>
	<path fill="none" d="M389.677,40.981"/>
</g>
<g>
	<circle fill="#706F6F" cx="208.799" cy="145.931" r="15.591"/>
	<circle fill="#706F6F" cx="250.603" cy="185.598" r="15.59"/>
	<circle fill="#706F6F" cx="290.332" cy="225.418" r="15.59"/>
	<circle fill="#706F6F" cx="330.331" cy="265.168" r="15.59"/>
	<g enable-background="new    ">
		<path fill="#706F6F" d="M94.89,179.741l4.152-4.043l24.817,11.708l-4.204,4.094l-5.386-2.745l-6.886,6.706l2.549,5.507
			l-4.101,3.993L94.89,179.741z M105.503,191.414l4.771-4.646l-8.901-4.497l-0.052,0.05L105.503,191.414z"/>
		<path fill="#706F6F" d="M112.531,162.564l4.023-3.918l19.716,4.87l0.052-0.05l-12.03-12.354l3.791-3.691l17.932,18.414
			l-4.05,3.943l-19.664-4.869l-0.051,0.05l12.004,12.328l-3.791,3.692L112.531,162.564z"/>
		<path fill="#706F6F" d="M141.674,134.186l4.152-4.043l24.817,11.709l-4.204,4.093l-5.386-2.745l-6.887,6.706l2.55,5.507
			l-4.102,3.993L141.674,134.186z M152.286,145.858l4.771-4.646l-8.901-4.497l-0.052,0.05L152.286,145.858z"/>
		<path fill="#706F6F" d="M159.315,117.008l4.049-3.943l14.616,15.01l8.975-8.74l3.315,3.404l-13.024,12.683L159.315,117.008z"/>
		<path fill="#706F6F" d="M192.469,106.63l-17.732-4.639l4.565-4.445l11.389,3.079l-2.801-11.442l4.514-4.395l4.215,18.003
			l6.882,7.066l-4.049,3.943L192.469,106.63z"/>
		<path fill="#706F6F" d="M213.693,88.024c0.603,0.618,1.225,1.035,1.867,1.247c0.642,0.213,1.278,0.272,1.906,0.178
			c0.63-0.092,1.253-0.313,1.868-0.662s1.198-0.79,1.749-1.326c0.36-0.352,0.719-0.758,1.072-1.22
			c0.354-0.462,0.628-0.955,0.821-1.479c0.194-0.523,0.264-1.053,0.212-1.588c-0.052-0.535-0.305-1.035-0.756-1.499
			c-0.486-0.499-1.038-0.748-1.658-0.748c-0.619,0-1.291,0.145-2.017,0.432s-1.485,0.677-2.281,1.166
			c-0.796,0.491-1.62,0.967-2.476,1.431c-0.854,0.498-1.73,0.94-2.627,1.327c-0.896,0.388-1.794,0.634-2.695,0.741
			c-0.9,0.106-1.795,0.022-2.682-0.252c-0.889-0.275-1.75-0.842-2.587-1.702c-0.921-0.945-1.519-1.963-1.793-3.053
			c-0.273-1.089-0.311-2.185-0.108-3.285c0.2-1.101,0.605-2.164,1.213-3.192c0.608-1.027,1.324-1.942,2.149-2.746
			c0.963-0.938,1.991-1.729,3.087-2.377c1.094-0.647,2.22-1.064,3.377-1.253c1.156-0.188,2.3-0.105,3.433,0.249
			c1.132,0.355,2.218,1.065,3.256,2.131l-3.92,3.817c-0.57-0.516-1.13-0.858-1.679-1.027c-0.55-0.168-1.089-0.197-1.616-0.085
			s-1.048,0.335-1.562,0.667c-0.514,0.333-1.012,0.733-1.492,1.202c-0.327,0.318-0.62,0.671-0.88,1.058
			c-0.26,0.386-0.439,0.795-0.538,1.227s-0.105,0.864-0.018,1.298s0.316,0.84,0.684,1.218c0.352,0.361,0.705,0.586,1.061,0.676
			s0.823,0.028,1.402-0.185c0.58-0.212,1.323-0.568,2.229-1.065c0.905-0.497,2.077-1.16,3.514-1.99
			c0.273-0.166,0.638-0.377,1.09-0.635c0.454-0.256,0.962-0.5,1.524-0.731c0.563-0.229,1.173-0.412,1.827-0.548
			c0.655-0.135,1.336-0.177,2.038-0.125c0.704,0.052,1.415,0.24,2.132,0.563c0.717,0.323,1.41,0.829,2.08,1.516
			c0.82,0.843,1.419,1.785,1.796,2.825c0.376,1.041,0.497,2.136,0.362,3.288c-0.134,1.153-0.531,2.344-1.192,3.575
			c-0.662,1.229-1.619,2.456-2.874,3.678c-1.015,0.988-2.126,1.817-3.33,2.488c-1.206,0.671-2.429,1.092-3.67,1.262
			c-1.241,0.171-2.482,0.057-3.725-0.342c-1.243-0.399-2.407-1.173-3.495-2.325L213.693,88.024z"/>
		<path fill="#706F6F" d="M220.695,57.239l4.05-3.943l17.931,18.414l-4.049,3.943L220.695,57.239z"/>
		<path fill="#706F6F" d="M248.045,54.573c0.603,0.618,1.225,1.034,1.867,1.246c0.642,0.213,1.277,0.273,1.906,0.178
			c0.63-0.092,1.253-0.314,1.868-0.663c0.615-0.348,1.198-0.79,1.749-1.326c0.36-0.352,0.718-0.758,1.072-1.22
			c0.354-0.462,0.628-0.955,0.821-1.478c0.194-0.523,0.264-1.053,0.212-1.589c-0.052-0.534-0.305-1.035-0.757-1.499
			c-0.485-0.499-1.038-0.748-1.657-0.748c-0.62,0-1.291,0.145-2.017,0.431c-0.726,0.288-1.485,0.677-2.281,1.167
			c-0.796,0.49-1.62,0.967-2.476,1.431c-0.854,0.499-1.73,0.94-2.627,1.327c-0.896,0.387-1.794,0.634-2.695,0.741
			c-0.9,0.107-1.795,0.023-2.682-0.252c-0.889-0.275-1.751-0.843-2.588-1.703c-0.92-0.945-1.518-1.963-1.792-3.052
			c-0.273-1.09-0.311-2.185-0.108-3.286c0.2-1.101,0.605-2.164,1.213-3.192c0.608-1.027,1.324-1.942,2.149-2.746
			c0.963-0.938,1.991-1.73,3.087-2.377c1.094-0.647,2.22-1.065,3.377-1.253c1.156-0.188,2.3-0.105,3.433,0.249
			c1.132,0.354,2.218,1.065,3.256,2.131l-3.92,3.817c-0.57-0.516-1.13-0.859-1.679-1.028c-0.55-0.168-1.089-0.197-1.616-0.085
			c-0.528,0.111-1.048,0.334-1.562,0.667c-0.514,0.332-1.012,0.733-1.493,1.202c-0.326,0.318-0.619,0.671-0.879,1.058
			s-0.439,0.795-0.538,1.228c-0.099,0.432-0.105,0.864-0.018,1.298c0.088,0.434,0.316,0.84,0.684,1.218
			c0.352,0.361,0.705,0.587,1.061,0.676c0.355,0.09,0.822,0.028,1.402-0.185c0.58-0.212,1.323-0.568,2.229-1.065
			c0.905-0.498,2.077-1.16,3.514-1.991c0.273-0.166,0.638-0.376,1.09-0.634c0.454-0.256,0.962-0.5,1.524-0.731
			c0.563-0.229,1.173-0.412,1.827-0.549c0.655-0.135,1.336-0.177,2.038-0.125c0.704,0.052,1.414,0.239,2.132,0.563
			c0.717,0.323,1.41,0.829,2.08,1.516c0.82,0.843,1.419,1.785,1.795,2.825c0.377,1.041,0.498,2.136,0.363,3.288
			c-0.134,1.153-0.531,2.344-1.192,3.574c-0.662,1.229-1.619,2.457-2.874,3.678c-1.015,0.988-2.126,1.817-3.33,2.488
			c-1.206,0.671-2.429,1.092-3.67,1.262c-1.241,0.171-2.482,0.057-3.725-0.342c-1.243-0.399-2.407-1.173-3.495-2.325L248.045,54.573
			z"/>
	</g>
</g>
<g>
	<circle fill="#FBA97A" cx="576.649" cy="146.391" r="15.59"/>
	<circle fill="#FBA97A" cx="536.982" cy="186.391" r="15.591"/>
	<circle fill="#FBA97A" cx="497.161" cy="226.119" r="15.591"/>
	<circle fill="#FBA97A" cx="457.411" cy="266.119" r="15.591"/>
	<g enable-background="new    ">
		<path fill="#FBA97A" d="M556.362,50.659l7.879,7.801c1.177,1.166,2.087,2.438,2.73,3.818c0.642,1.38,0.964,2.813,0.963,4.297
			c-0.001,1.485-0.351,2.996-1.046,4.536c-0.697,1.54-1.798,3.068-3.301,4.586c-1.316,1.331-2.703,2.39-4.158,3.178
			c-1.457,0.788-2.935,1.249-4.436,1.384c-1.502,0.135-3-0.074-4.496-0.627s-2.943-1.521-4.342-2.906l-7.879-7.801L556.362,50.659z
			 M545.636,69.524l3.581,3.546c0.579,0.574,1.235,1.038,1.968,1.39c0.731,0.354,1.525,0.523,2.382,0.511
			c0.857-0.013,1.76-0.242,2.708-0.688c0.948-0.445,1.92-1.172,2.917-2.178c0.911-0.921,1.646-1.841,2.2-2.76
			c0.556-0.92,0.891-1.846,1.006-2.781c0.113-0.932-0.027-1.874-0.422-2.822c-0.396-0.949-1.088-1.912-2.076-2.892l-2.865-2.837
			L545.636,69.524z"/>
		<path fill="#FBA97A" d="M580.281,74.342l13.66,13.526l-3.344,3.377l-9.645-9.549l-3.875,3.913l8.852,8.764l-3.091,3.122
			l-8.851-8.764l-4.434,4.477l9.85,9.751l-3.344,3.377l-13.865-13.729L580.281,74.342z"/>
		<path fill="#FBA97A" d="M592.475,110.582c-0.608,0.614-1.013,1.244-1.212,1.89c-0.202,0.646-0.249,1.283-0.145,1.91
			c0.105,0.627,0.338,1.246,0.697,1.855c0.359,0.607,0.812,1.184,1.357,1.723c0.358,0.355,0.771,0.706,1.24,1.051
			c0.469,0.346,0.965,0.611,1.492,0.795c0.527,0.185,1.059,0.244,1.592,0.184c0.535-0.063,1.029-0.324,1.486-0.785
			c0.488-0.494,0.729-1.051,0.717-1.67c-0.012-0.62-0.168-1.289-0.467-2.009c-0.301-0.72-0.704-1.474-1.209-2.26
			c-0.506-0.786-0.996-1.603-1.476-2.449c-0.514-0.846-0.972-1.713-1.375-2.603c-0.403-0.889-0.667-1.783-0.79-2.682
			s-0.055-1.795,0.203-2.686c0.259-0.894,0.811-1.766,1.655-2.619c0.929-0.938,1.935-1.553,3.02-1.847s2.179-0.351,3.283-0.169
			c1.104,0.181,2.175,0.566,3.213,1.154c1.038,0.59,1.967,1.289,2.786,2.1c0.954,0.945,1.766,1.959,2.433,3.042
			s1.106,2.201,1.315,3.354c0.209,1.152,0.146,2.299-0.188,3.438s-1.023,2.237-2.07,3.294l-3.889-3.851
			c0.506-0.579,0.838-1.146,0.997-1.697c0.158-0.553,0.177-1.092,0.056-1.617s-0.354-1.042-0.695-1.549
			c-0.342-0.508-0.752-0.998-1.229-1.471c-0.324-0.32-0.681-0.607-1.072-0.859c-0.394-0.254-0.806-0.426-1.237-0.517
			c-0.434-0.092-0.867-0.089-1.299,0.007c-0.434,0.096-0.835,0.332-1.205,0.706c-0.355,0.358-0.574,0.716-0.657,1.071
			c-0.083,0.357-0.013,0.823,0.211,1.399c0.223,0.576,0.591,1.313,1.105,2.209c0.513,0.897,1.197,2.057,2.054,3.478
			c0.17,0.271,0.389,0.631,0.654,1.078c0.266,0.449,0.518,0.953,0.759,1.512c0.239,0.559,0.434,1.164,0.581,1.818
			c0.148,0.651,0.202,1.33,0.162,2.035c-0.038,0.704-0.213,1.418-0.523,2.141s-0.803,1.426-1.479,2.107
			c-0.827,0.836-1.758,1.451-2.791,1.846c-1.033,0.396-2.127,0.538-3.281,0.424c-1.154-0.112-2.354-0.488-3.596-1.127
			c-1.241-0.639-2.485-1.574-3.73-2.807c-1.006-0.997-1.855-2.092-2.549-3.284c-0.693-1.194-1.137-2.409-1.329-3.647
			c-0.193-1.236-0.101-2.481,0.274-3.73c0.376-1.249,1.129-2.428,2.262-3.537L592.475,110.582z"/>
		<path fill="#FBA97A" d="M623.385,117.022l4.017,3.977l-18.086,18.266l-4.016-3.977L623.385,117.022z"/>
		<path fill="#FBA97A" d="M633.061,158.671c-1.628,0.212-3.063,0.075-4.305-0.41c-1.241-0.487-2.306-1.169-3.192-2.047
			c-1.415-1.401-2.432-2.898-3.051-4.49c-0.619-1.593-0.891-3.195-0.813-4.809c0.076-1.611,0.484-3.2,1.223-4.766
			c0.74-1.565,1.759-3.004,3.06-4.316c1.333-1.348,2.788-2.408,4.362-3.179s3.176-1.212,4.805-1.321
			c1.629-0.111,3.242,0.137,4.841,0.738c1.598,0.604,3.104,1.605,4.521,3.008c0.938,0.928,1.707,1.969,2.307,3.119
			s0.979,2.346,1.137,3.584c0.16,1.238,0.076,2.49-0.248,3.756s-0.951,2.47-1.879,3.611l-3.837-3.799
			c0.774-1.26,1.069-2.487,0.886-3.684c-0.185-1.195-0.754-2.266-1.709-3.211c-0.904-0.896-1.845-1.48-2.821-1.756
			c-0.978-0.275-1.954-0.313-2.929-0.113c-0.975,0.201-1.923,0.587-2.846,1.16c-0.922,0.573-1.779,1.26-2.572,2.063
			c-0.761,0.768-1.409,1.602-1.949,2.504c-0.538,0.902-0.898,1.838-1.08,2.805c-0.182,0.97-0.131,1.941,0.154,2.915
			s0.879,1.909,1.783,2.804c1.313,1.301,2.67,1.978,4.07,2.029c1.4,0.053,2.793-0.502,4.18-1.662l-4.042-4.002l2.964-2.994
			l7.674,7.6l-9.777,9.875l-2.557-2.533L633.061,158.671z"/>
		<path fill="#FBA97A" d="M660.273,153.547l3.99,3.95l-4.51,19.803l0.053,0.051l12.133-12.254l3.76,3.725l-18.085,18.266
			l-4.017-3.978l4.51-19.751l-0.051-0.051l-12.107,12.229l-3.761-3.724L660.273,153.547z"/>
	</g>
</g>
<g>
	<circle fill="#706F6F" cx="291.797" cy="422.111" r="15.59"/>
	<circle fill="#706F6F" cx="252.13" cy="462.111" r="15.59"/>
	<circle fill="#706F6F" cx="212.31" cy="501.841" r="15.59"/>
	<circle fill="#706F6F" cx="172.56" cy="541.841" r="15.59"/>
	<g enable-background="new    ">
		<path fill="#706F6F" d="M31.005,477.307l13.682,13.506l-3.338,3.382l-9.659-9.534l-3.869,3.92l8.865,8.75l-3.086,3.127
			l-8.865-8.75l-4.426,4.482l9.864,9.736l-3.338,3.383l-13.887-13.708L31.005,477.307z"/>
		<path fill="#706F6F" d="M43.027,525.292l-4.535-4.477l12.113-24.16l4.151,4.097l-8.622,16.884l0.051,0.05l16.821-8.79l4.15,4.097
			L43.027,525.292z"/>
		<path fill="#706F6F" d="M77.508,523.21l4.125,4.071l-11.216,25.046l-4.176-4.122l2.637-5.438l-6.841-6.754l-5.456,2.658
			l-4.074-4.021L77.508,523.21z M66.046,534.052l4.74,4.679l4.32-8.99l-0.051-0.05L66.046,534.052z"/>
		<path fill="#706F6F" d="M95.032,540.508l4.022,3.971l-14.719,14.911l8.916,8.801l-3.338,3.383l-12.938-12.771L95.032,540.508z"/>
		<path fill="#706F6F" d="M119.493,587.112c-2.444,2.477-4.958,3.639-7.538,3.485c-2.581-0.152-5.092-1.435-7.535-3.845
			c-2.477-2.445-3.799-4.939-3.969-7.484c-0.169-2.545,0.977-5.064,3.438-7.558l11.229-11.376l4.022,3.971l-11.229,11.376
			c-0.489,0.495-0.927,1.023-1.313,1.587c-0.387,0.563-0.63,1.166-0.727,1.812c-0.098,0.646-0.013,1.319,0.256,2.022
			c0.267,0.703,0.811,1.459,1.63,2.268c1.435,1.416,2.742,2.074,3.921,1.973c1.178-0.101,2.442-0.834,3.791-2.201l11.229-11.375
			l4.022,3.971L119.493,587.112z"/>
		<path fill="#706F6F" d="M144.148,588.988l4.125,4.071l-11.216,25.047l-4.176-4.123l2.637-5.439l-6.84-6.752l-5.457,2.657
			l-4.073-4.021L144.148,588.988z M132.686,599.831l4.74,4.68l4.32-8.99l-0.051-0.051L132.686,599.831z"/>
		<path fill="#706F6F" d="M160.487,611.793l-5.483-5.412l3.338-3.382l14.989,14.795l-3.338,3.383l-5.483-5.412l-14.719,14.911
			l-4.023-3.972L160.487,611.793z"/>
		<path fill="#706F6F" d="M180.402,624.774l4.022,3.97l-18.057,18.294l-4.022-3.971L180.402,624.774z"/>
		<path fill="#706F6F" d="M183.032,645.581c1.332-1.35,2.785-2.411,4.358-3.186c1.572-0.773,3.173-1.217,4.802-1.33
			c1.629-0.112,3.241,0.132,4.841,0.732c1.599,0.601,3.108,1.6,4.526,3c1.417,1.399,2.437,2.895,3.059,4.486
			c0.62,1.592,0.886,3.201,0.795,4.832c-0.091,1.629-0.514,3.236-1.267,4.819c-0.754,1.583-1.797,3.05-3.128,4.398
			c-1.299,1.315-2.726,2.351-4.281,3.108c-1.557,0.758-3.141,1.184-4.752,1.277c-1.613,0.096-3.218-0.156-4.817-0.757
			s-3.107-1.601-4.525-3c-1.418-1.399-2.438-2.896-3.06-4.485c-0.621-1.593-0.895-3.193-0.819-4.807
			c0.074-1.613,0.479-3.202,1.217-4.769C180.717,648.337,181.734,646.895,183.032,645.581z M187.054,649.551
			c-0.759,0.769-1.406,1.604-1.943,2.509c-0.538,0.902-0.897,1.838-1.077,2.807c-0.18,0.969-0.127,1.939,0.159,2.913
			c0.286,0.974,0.882,1.907,1.788,2.802c0.905,0.893,1.846,1.477,2.824,1.75c0.977,0.274,1.949,0.314,2.916,0.122
			c0.965-0.192,1.897-0.563,2.793-1.112c0.896-0.55,1.724-1.209,2.482-1.977c0.792-0.803,1.469-1.669,2.032-2.598
			c0.563-0.928,0.938-1.881,1.127-2.858c0.188-0.978,0.14-1.953-0.146-2.927c-0.288-0.974-0.882-1.908-1.787-2.802
			c-0.906-0.894-1.848-1.477-2.825-1.751c-0.978-0.273-1.954-0.309-2.929-0.107c-0.974,0.201-1.921,0.59-2.843,1.164
			S187.847,648.748,187.054,649.551z"/>
		<path fill="#706F6F" d="M217.834,661.722l3.997,3.944l-4.479,19.81l0.051,0.051l12.114-12.272l3.767,3.717l-18.057,18.294
			l-4.023-3.971l4.479-19.759l-0.051-0.05l-12.089,12.247l-3.766-3.717L217.834,661.722z"/>
	</g>
</g>
<g>
	<circle fill="#706F6F" cx="462.983" cy="412.358" r="15.591"/>
	<circle fill="#706F6F" cx="502.983" cy="452.025" r="15.59"/>
	<circle fill="#706F6F" cx="542.711" cy="491.845" r="15.59"/>
	<circle fill="#706F6F" cx="582.711" cy="531.595" r="15.59"/>
	<g enable-background="new    ">
		<path fill="#706F6F" d="M523.614,644.339l4.119-3.869l17.598,18.735l-4.12,3.87L523.614,644.339z"/>
		<path fill="#706F6F" d="M536.445,632.287l5.8-5.446l16.482,8.768l0.053-0.049l-7.955-16.778l5.799-5.446l17.598,18.735
			l-3.857,3.623l-12.471-13.277l-0.053,0.05l7.879,17.59l-3.176,2.982l-16.939-8.834l-0.053,0.049l12.348,13.146l-3.857,3.623
			L536.445,632.287z"/>
		<path fill="#706F6F" d="M565.335,605.152l8.45-7.937c1.171-1.1,2.328-1.865,3.471-2.297c1.143-0.431,2.234-0.609,3.277-0.535
			c1.041,0.076,2.021,0.365,2.939,0.87c0.918,0.504,1.73,1.134,2.438,1.885c0.723,0.771,1.303,1.624,1.74,2.563
			c0.438,0.939,0.66,1.931,0.67,2.976s-0.236,2.124-0.737,3.236c-0.502,1.113-1.339,2.222-2.511,3.322l-4.33,4.066l6.311,6.717
			l-4.121,3.869L565.335,605.152z M577.737,610.1l3.2-3.008c0.473-0.443,0.895-0.905,1.267-1.387
			c0.371-0.479,0.629-0.977,0.773-1.49c0.143-0.514,0.143-1.048-0.002-1.605c-0.145-0.555-0.494-1.131-1.053-1.727
			c-0.559-0.594-1.111-0.98-1.658-1.159s-1.08-0.212-1.602-0.101s-1.033,0.337-1.536,0.678s-0.99,0.732-1.463,1.176l-3.2,3.008
			L577.737,610.1z"/>
		<path fill="#706F6F" d="M587.928,583.932l4.119-3.869l14.344,15.271l9.133-8.576l3.253,3.464l-13.251,12.446L587.928,583.932z"/>
		<path fill="#706F6F" d="M608.578,564.537l14.013-13.161l3.253,3.465l-9.893,9.291l3.771,4.014l9.078-8.526l3.008,3.202
			l-9.08,8.526l4.313,4.592l10.103-9.488l3.254,3.464l-14.223,13.357L608.578,564.537z"/>
		<path fill="#706F6F" d="M630.674,543.785l5.799-5.446l16.482,8.768l0.053-0.049l-7.955-16.777l5.799-5.447l17.598,18.736
			l-3.857,3.623l-12.471-13.277l-0.053,0.049l7.879,17.59l-3.175,2.982l-16.94-8.833l-0.052,0.049l12.348,13.146l-3.857,3.622
			L630.674,543.785z"/>
		<path fill="#706F6F" d="M659.565,516.651l14.012-13.161l3.252,3.464l-9.893,9.291l3.771,4.016l9.079-8.527l3.007,3.201
			l-9.079,8.527l4.313,4.592l10.102-9.488l3.254,3.463l-14.222,13.358L659.565,516.651z"/>
		<path fill="#706F6F" d="M681.658,495.899l4.093-3.844l19.625,5.225l0.053-0.05l-11.806-12.569l3.857-3.623l17.598,18.736
			l-4.12,3.869l-19.575-5.223l-0.051,0.049l11.78,12.543l-3.857,3.623L681.658,495.899z"/>
	</g>
	<g enable-background="new    ">
		<path fill="#706F6F" d="M587.942,649.704l-5.615,5.273l-3.254-3.463l15.352-14.418l3.253,3.463l-5.615,5.274l14.345,15.272
			l-4.121,3.869L587.942,649.704z"/>
		<path fill="#706F6F" d="M604.842,627.311l4.225-3.967l24.604,12.154l-4.277,4.018l-5.336-2.841l-7.006,6.581l2.449,5.551
			l-4.173,3.919L604.842,627.311z M615.242,639.175l4.855-4.559l-8.82-4.658l-0.053,0.05L615.242,639.175z"/>
		<path fill="#706F6F" d="M628.247,611.847l-5.616,5.274l-3.252-3.464l15.35-14.418l3.254,3.464l-5.615,5.273l14.344,15.272
			l-4.119,3.87L628.247,611.847z"/>
		<path fill="#706F6F" d="M641.971,592.438l4.121-3.869l17.597,18.735l-4.12,3.87L641.971,592.438z"/>
		<path fill="#706F6F" d="M662.863,590.597c-1.298-1.382-2.305-2.874-3.019-4.476c-0.713-1.601-1.096-3.217-1.146-4.849
			s0.254-3.235,0.914-4.811c0.661-1.575,1.717-3.045,3.169-4.409c1.452-1.363,2.985-2.324,4.599-2.887
			c1.614-0.559,3.232-0.764,4.858-0.611c1.626,0.153,3.215,0.637,4.768,1.448c1.554,0.813,2.979,1.911,4.278,3.292
			c1.265,1.348,2.246,2.813,2.943,4.396s1.064,3.184,1.098,4.797c0.035,1.615-0.279,3.209-0.939,4.785
			c-0.662,1.574-1.717,3.045-3.169,4.408s-2.985,2.326-4.599,2.887s-3.225,0.773-4.834,0.637c-1.607-0.135-3.181-0.6-4.719-1.395
			C665.528,593.015,664.127,591.944,662.863,590.597z M666.983,586.727c0.738,0.787,1.549,1.467,2.432,2.038
			c0.882,0.571,1.803,0.966,2.764,1.183s1.935,0.2,2.918-0.05c0.984-0.249,1.939-0.809,2.867-1.68s1.545-1.79,1.855-2.757
			c0.312-0.965,0.389-1.936,0.232-2.908s-0.492-1.916-1.007-2.832c-0.515-0.918-1.142-1.769-1.881-2.556
			c-0.772-0.822-1.612-1.532-2.519-2.129c-0.906-0.598-1.844-1.009-2.813-1.234s-1.946-0.214-2.931,0.035
			c-0.983,0.25-1.939,0.81-2.867,1.681c-0.927,0.871-1.545,1.789-1.855,2.756s-0.383,1.94-0.219,2.922
			c0.164,0.982,0.516,1.943,1.056,2.885C665.554,585.024,666.209,585.905,666.983,586.727z"/>
		<path fill="#706F6F" d="M680.309,556.43l4.094-3.844l19.625,5.225l0.053-0.05l-11.806-12.569l3.857-3.623l17.597,18.736
			l-4.119,3.869l-19.574-5.223l-0.053,0.049l11.781,12.543l-3.857,3.623L680.309,556.43z"/>
	</g>
</g>
<circle fill="#C6C6C6" cx="391.181" cy="342.992" r="42.53"/>
<path fill="none" stroke="#C6C6C6" stroke-width="12" stroke-miterlimit="10" d="M396.375,379.115
	c-103.375,7.667-88.599-15-91.984-48.813"/>
<path fill="#A8A8A8" d="M325.878,371.889"/>
<polyline fill="#434343" points="295.569,337.444 304.444,332.444 313.157,337.597 313.212,332.48 304.444,327.294 295.569,332.294 
	"/>
<polyline fill="#434343" points="339.382,387.973 335.447,378.578 341.576,370.521 336.5,369.874 330.331,377.98 334.267,387.375 
	"/>
<polyline fill="#434343" points="379.024,461.659 374.024,452.784 379.178,444.07 374.061,444.016 368.875,452.784 373.875,461.659 
	"/>
<polyline fill="#434343" points="379.024,517.94 374.024,509.065 379.178,500.351 374.061,500.298 368.875,509.065 373.875,517.94 
	"/>
<polyline fill="#434343" points="379.024,574.69 374.024,565.815 379.178,557.101 374.061,557.048 368.875,565.815 373.875,574.69 
	"/>
<polyline fill="#434343" points="379.024,631.065 374.024,622.19 379.178,613.476 374.061,613.423 368.875,622.19 373.875,631.065 
	"/>
<polyline fill="#434343" points="386.226,229.886 391.226,238.761 386.072,247.475 391.189,247.529 396.375,238.761 
	391.375,229.886 "/>
<polyline fill="#434343" points="386.226,173.605 391.226,182.48 386.072,191.194 391.189,191.248 396.375,182.48 391.375,173.605 
	"/>
<polyline fill="#434343" points="386.226,116.855 391.226,125.73 386.072,134.444 391.189,134.498 396.375,125.73 391.375,116.855 
	"/>
<polyline fill="#434343" points="386.226,60.48 391.226,69.355 386.072,78.069 391.189,78.123 396.375,69.355 391.375,60.48 "/>
<polyline fill="#434343" points="498.259,334.544 489.384,339.544 480.67,334.391 480.615,339.508 489.384,344.694 498.259,339.694 
	"/>
<polyline fill="#434343" points="554.539,334.544 545.664,339.544 536.95,334.391 536.897,339.508 545.664,344.694 554.539,339.694 
	"/>
<polyline fill="#434343" points="611.289,334.544 602.414,339.544 593.7,334.391 593.647,339.508 602.414,344.694 611.289,339.694 
	"/>
<polyline fill="#434343" points="667.664,334.544 658.789,339.544 650.075,334.391 650.022,339.508 658.789,344.694 
	667.664,339.694 "/>
</svg>
