<svg id="Ebene_1" data-name="Ebene 1" xmlns="http://www.w3.org/2000/svg" viewBox="0 0 747 689.6"><defs><style>.cls-1,.cls-2,.cls-3,.cls-41,.cls-58{fill:none;}.cls-1{stroke:#0065bd;stroke-width:3px;}.cls-1,.cls-2,.cls-3,.cls-58{stroke-miterlimit:10;}.cls-2{stroke:#a8a8a7;}.cls-2,.cls-3,.cls-58{stroke-width:12px;}.cls-3{stroke:#9d9d9c;}.cls-4,.cls-6{fill:#0065bd;}.cls-5{font-size:14px;}.cls-5,.cls-59{fill:#fff;}.cls-42,.cls-46,.cls-47,.cls-5,.cls-6{font-family:TUMNeueHelvetica-Bold, TUMNeueHelvetica Bold;font-weight:700;}.cls-6{font-size:10px;}.cls-7{letter-spacing:0.01em;}.cls-8{letter-spacing:-0.01em;}.cls-9{font-size:9px;fill:#1d1d1b;}.cls-10{letter-spacing:-0.02em;}.cls-11{letter-spacing:-0.01em;}.cls-12{letter-spacing:0em;}.cls-13{letter-spacing:0em;}.cls-14,.cls-47{fill:#23313d;}.cls-15{font-size:8px;font-family:TUMNeueHelvetica-Regular, TUMNeueHelvetica Regular;}.cls-16{letter-spacing:0.02em;}.cls-17{letter-spacing:0em;}.cls-18{letter-spacing:0em;}.cls-19{letter-spacing:0em;}.cls-20{letter-spacing:0em;}.cls-21{letter-spacing:0em;}.cls-22{letter-spacing:-0.01em;}.cls-23{letter-spacing:0em;}.cls-24{letter-spacing:0em;}.cls-25{letter-spacing:0em;}.cls-26{letter-spacing:-0.01em;}.cls-27,.cls-46{fill:#3c87c8;}.cls-28{letter-spacing:-0.01em;}.cls-29{letter-spacing:0.01em;}.cls-30{letter-spacing:0.01em;}.cls-31{letter-spacing:0.01em;}.cls-32{letter-spacing:-0.01em;}.cls-33{fill:#2f5f84;}.cls-34{letter-spacing:0.01em;}.cls-35{letter-spacing:-0.03em;}.cls-36,.cls-42{fill:#77c4d3;}.cls-37{letter-spacing:-0.01em;}.cls-38{letter-spacing:0.02em;}.cls-39{letter-spacing:0em;}.cls-40{letter-spacing:0em;}.cls-42,.cls-46,.cls-47{font-size:36px;}.cls-42,.cls-46,.cls-56{letter-spacing:0.2em;}.cls-43{letter-spacing:0.12em;}.cls-44{letter-spacing:0.19em;}.cls-45{letter-spacing:0.2em;}.cls-47{letter-spacing:0.21em;}.cls-48{letter-spacing:0.14em;}.cls-49{letter-spacing:0.2em;}.cls-50{letter-spacing:0.16em;}.cls-51{letter-spacing:0.17em;}.cls-52{letter-spacing:0.12em;}.cls-53{letter-spacing:0.2em;}.cls-54{letter-spacing:0.13em;}.cls-55{letter-spacing:0.12em;}.cls-57{fill:#a8a8a8;}.cls-58{stroke:#a8a8a8;}</style></defs><line class="cls-1" x1="247.55" y1="323.41" y2="323.41"/><path class="cls-2" d="M134.37,330.61s0-1.51-.07-4.45-.15-7.29.14-13a249.55,249.55,0,0,1,17.63-83.41c1.25-3,2.46-6.14,3.88-9.23s2.89-6.23,4.42-9.42,3.29-6.32,5-9.55,3.69-6.39,5.62-9.66a256.51,256.51,0,0,1,69.22-74.56A258.08,258.08,0,0,1,353.64,71.61c2.73-.46,5.47-.72,8.22-1s5.52-.63,8.3-.86l8.36-.52,4.21-.22L387,68.9l8.51-.05c2.84,0,5.71.18,8.58.29,5.74.17,11.52.8,17.33,1.35a263.56,263.56,0,0,1,34.95,6.38L460.7,78c1.46.36,2.89.82,4.34,1.24l8.7,2.64c2.87,1,5.74,2,8.62,3,1.43.52,2.87,1,4.3,1.57l4.26,1.73a267.56,267.56,0,0,1,64.63,37.47q3.72,3,7.41,6c2.44,2.06,4.8,4.2,7.19,6.33,1.19,1.07,2.4,2.13,3.56,3.23l3.45,3.35L580.6,148c1.15,1.13,2.28,2.27,3.37,3.45q3.31,3.54,6.59,7.12c2.16,2.41,4.22,4.91,6.32,7.4,1,1.25,2.09,2.49,3.1,3.76l3,3.87,3,3.9c1,1.3,2,2.62,2.89,4q2.8,4,5.58,8.11c1.81,2.74,3.52,5.55,5.26,8.36.86,1.4,1.74,2.8,2.57,4.23l2.43,4.33,2.4,4.35c.8,1.45,1.59,2.91,2.31,4.4q2.24,4.46,4.4,9c1.42,3,2.72,6.09,4.05,9.16.65,1.54,1.32,3.07,1.94,4.62l1.79,4.7,1.76,4.71c.59,1.57,1.16,3.15,1.66,4.75q1.56,4.78,3.07,9.61c1,3.22,1.8,6.48,2.67,9.74l1.26,4.9,1.08,4.94c.69,3.29,1.45,6.6,2,9.92A276.64,276.64,0,0,1,657.69,372c-.35,3.39-.89,6.77-1.37,10.14l-.77,5.07-.95,5c-.67,3.35-1.29,6.72-2.07,10s-1.62,6.65-2.48,10c-.4,1.67-.88,3.31-1.37,4.95l-1.48,4.92-1.52,4.91c-.52,1.63-1.11,3.23-1.67,4.85-1.16,3.22-2.28,6.46-3.53,9.64s-2.59,6.33-3.92,9.48c-.64,1.59-1.35,3.14-2.08,4.69l-2.18,4.63L630.09,465c-.76,1.53-1.57,3-2.36,4.53-1.6,3-3.18,6-4.88,9s-3.46,5.87-5.22,8.78c-.87,1.47-1.79,2.89-2.73,4.31l-2.81,4.25-2.84,4.23c-1,1.39-2,2.75-3,4.13-2,2.73-4,5.48-6.08,8.14s-4.24,5.28-6.39,7.89c-1.06,1.32-2.17,2.59-3.3,3.85l-3.37,3.79-3.39,3.75c-1.15,1.24-2.34,2.43-3.51,3.64-2.37,2.4-4.71,4.82-7.14,7.16s-4.92,4.59-7.4,6.85a285.14,285.14,0,0,1-66.3,44.42l-4.46,2.16c-1.5.7-3,1.34-4.53,2-3,1.31-6.06,2.62-9.1,3.87s-6.14,2.34-9.22,3.47c-1.54.56-3.07,1.15-4.62,1.66l-4.67,1.51a288.67,288.67,0,0,1-37.67,9.45c-6.31,1-12.62,2.12-18.91,2.72-3.15.34-6.29.69-9.43,1s-6.25.39-9.37.55l-4.67.23-4.66.07q-4.66,0-9.3,0c-3.09,0-6.19-.21-9.27-.34s-6.15-.25-9.21-.56A293.51,293.51,0,0,1,279.82,607a296.15,296.15,0,0,1-110.47-67.41,301.86,301.86,0,0,1-36.92-43.08c-2.53-3.7-5.07-7.31-7.39-11s-4.54-7.32-6.69-10.93-4.06-7.28-6-10.84S108.74,456.55,107,453a301.78,301.78,0,0,1-27.84-99.27c-.8-6.94-1-12.26-1.22-15.85s-.27-5.45-.27-5.45" transform="translate(0 -9.04)"/><path class="cls-2" d="M191.07,330.8s0-1.17-.08-3.45-.2-5.65,0-10.06a192.76,192.76,0,0,1,13-64.65c.95-2.34,1.84-4.78,2.92-7.18s2.21-4.85,3.35-7.34l3.82-7.45c1.32-2.52,2.83-5,4.29-7.55a200.36,200.36,0,0,1,22.24-30.31,197.06,197.06,0,0,1,31.1-28.3A201.28,201.28,0,0,1,359.9,128c2.12-.4,4.28-.6,6.43-.88s4.33-.54,6.51-.74l6.57-.46,3.31-.22,3.32-.07,6.69-.12c2.24,0,4.49.12,6.74.18,4.52.07,9,.55,13.63.92a208.26,208.26,0,0,1,27.48,4.76l3.45.83c1.15.28,2.28.64,3.42,1l6.85,2,6.8,2.32c1.13.4,2.27.78,3.4,1.21l3.35,1.33a210.58,210.58,0,0,1,51.22,29.08l5.9,4.69c1.94,1.61,3.82,3.3,5.73,5,.94.84,1.91,1.66,2.83,2.52l2.75,2.64,2.75,2.65c.92.88,1.83,1.77,2.69,2.71l5.26,5.58c1.73,1.89,3.37,3.86,5,5.81.83,1,1.68,1.95,2.49,2.95l2.38,3.05,2.38,3.07c.79,1,1.58,2.05,2.31,3.11l4.47,6.38c1.46,2.16,2.82,4.38,4.23,6.59.68,1.1,1.4,2.2,2.06,3.33l1.95,3.41,1.93,3.43c.65,1.14,1.29,2.29,1.87,3.47l3.55,7.06c1.14,2.38,2.17,4.81,3.25,7.22.53,1.22,1.08,2.42,1.58,3.65l1.44,3.71,1.43,3.72c.48,1.24.95,2.48,1.35,3.75l2.5,7.59c.8,2.55,1.46,5.13,2.18,7.71l1,3.87.88,3.91c.56,2.62,1.2,5.23,1.67,7.87a219.77,219.77,0,0,1,2.63,64.34c-.25,2.7-.68,5.38-1,8.08l-.57,4-.73,4c-.52,2.67-1,5.36-1.58,8l-1.91,7.94c-.3,1.33-.67,2.65-1.06,4l-1.15,3.93-1.17,3.92c-.4,1.3-.87,2.58-1.31,3.87-.9,2.58-1.77,5.17-2.74,7.72l-3.06,7.58c-.5,1.27-1.06,2.52-1.63,3.75L582,434.33,580.22,438c-.6,1.23-1.24,2.42-1.86,3.64-1.27,2.4-2.5,4.84-3.84,7.21l-4.12,7c-.68,1.19-1.41,2.33-2.15,3.47L566,462.81l-2.24,3.41c-.77,1.12-1.58,2.21-2.36,3.31-1.6,2.2-3.16,4.42-4.82,6.57l-5.06,6.35c-.84,1.07-1.72,2.09-2.62,3.1l-2.68,3.05-2.69,3c-.9,1-1.86,2-2.79,2.93-1.88,1.94-3.74,3.9-5.67,5.79l-5.89,5.53a228.46,228.46,0,0,1-52.88,36l-3.57,1.76c-1.2.57-2.41,1.09-3.62,1.63-2.42,1.07-4.84,2.14-7.27,3.17l-7.38,2.84c-1.24.45-2.46.95-3.7,1.36l-3.74,1.24a231.49,231.49,0,0,1-30.2,7.82c-5.08.85-10.14,1.8-15.21,2.3-2.53.29-5.06.6-7.58.83l-7.56.5-3.77.22-3.77.07-7.5.09c-2.5,0-5-.14-7.48-.22s-5-.15-7.43-.4a236.78,236.78,0,0,1-56.9-11.28,241.57,241.57,0,0,1-49.59-23A238.49,238.49,0,0,1,209.93,500a244.42,244.42,0,0,1-30.19-34.73c-2.06-3-4.16-5.89-6.05-8.86s-3.73-5.92-5.5-8.83-3.33-5.88-4.92-8.77-3-5.8-4.39-8.63a244.93,244.93,0,0,1-23.17-80.51c-.7-5.65-.89-10-1.08-12.91s-.26-4.45-.26-4.45" transform="translate(0 -9.04)"/><path class="cls-2" d="M247.76,331s0-.83-.09-2.44-.24-4-.14-7.14a136,136,0,0,1,8.27-45.88c.66-1.66,1.23-3.41,2-5.13s1.51-3.48,2.28-5.26,1.73-3.54,2.63-5.35,2-3.58,2.95-5.43a142.1,142.1,0,0,1,15.51-22,140.65,140.65,0,0,1,21.95-20.7,144.33,144.33,0,0,1,63.06-27.39c1.53-.34,3.09-.48,4.65-.71s3.14-.46,4.72-.63l4.78-.4,2.41-.21,2.42-.08,4.87-.18c1.63,0,3.27.05,4.91.06,3.3,0,6.58.32,9.92.5a150.42,150.42,0,0,1,20,3.14l2.51.55c.85.18,1.66.44,2.5.66l5,1.37,5,1.62c.83.28,1.67.53,2.49.83l2.46.94a153.33,153.33,0,0,1,37.8,20.69l4.39,3.37c1.44,1.16,2.83,2.39,4.26,3.59.7.6,1.43,1.19,2.12,1.82l2,1.91,2.06,1.91c.69.64,1.37,1.28,2,2l3.94,4.05c1.29,1.37,2.51,2.81,3.77,4.22.62.72,1.27,1.42,1.88,2.15l1.78,2.22,1.78,2.23c.61.74,1.2,1.49,1.74,2.27l3.37,4.65c1.1,1.57,2.11,3.2,3.18,4.8.52.81,1.07,1.61,1.57,2.43l1.46,2.5,1.47,2.5c.5.83,1,1.67,1.41,2.54l2.7,5.16c.86,1.74,1.64,3.53,2.47,5.3.4.89.83,1.77,1.21,2.67l1.09,2.72,1.1,2.72c.38.91.74,1.82,1,2.76l1.93,5.58c.62,1.87,1.12,3.77,1.69,5.67l.82,2.85.68,2.88c.44,1.93,1,3.86,1.33,5.81a162.83,162.83,0,0,1,2.63,47.86c-.15,2-.47,4-.69,6l-.37,3-.52,3c-.36,2-.65,4-1.08,6l-1.34,5.94c-.2,1-.47,2-.75,2.95l-.82,2.93-.82,2.94c-.28,1-.63,1.93-.94,2.89-.66,1.92-1.26,3.87-2,5.78L534,402.69c-.35,1-.76,1.89-1.18,2.82l-1.24,2.78-1.25,2.8c-.43.92-.91,1.81-1.36,2.73-.93,1.81-1.81,3.65-2.79,5.44l-3,5.31c-.48.9-1,1.76-1.58,2.61L520,429.76l-1.64,2.59c-.56.85-1.16,1.67-1.74,2.5-1.18,1.66-2.32,3.35-3.54,5l-3.75,4.82c-.61.81-1.26,1.59-1.93,2.36l-2,2.31-2,2.32c-.67.76-1.39,1.48-2.08,2.22-1.4,1.47-2.77,3-4.2,4.42l-4.38,4.22a172.09,172.09,0,0,1-39.47,27.64l-2.67,1.37c-.89.44-1.81.84-2.71,1.26l-5.45,2.46-5.53,2.2c-.93.36-1.84.76-2.78,1.07l-2.81,1a173.12,173.12,0,0,1-22.73,6.2c-3.84.67-7.66,1.48-11.5,1.88-1.92.24-3.84.51-5.75.71l-5.75.44-2.87.22-2.86.08-5.71.14c-1.9,0-3.79-.07-5.68-.11s-3.79,0-5.66-.23a180,180,0,0,1-43.32-8A183.36,183.36,0,0,1,227.05,434c-1.59-2.28-3.25-4.48-4.72-6.74l-4.3-6.73-3.85-6.68c-1.25-2.2-2.31-4.44-3.44-6.6a181.93,181.93,0,0,1-10.24-24.79,184.67,184.67,0,0,1-8.25-36.94c-.6-4.36-.76-7.72-.94-10s-.24-3.44-.24-3.44" transform="translate(0 -9.04)"/><path class="cls-2" d="M304.45,331.18s0-.49-.1-1.44a41.68,41.68,0,0,1-.28-4.2,79.12,79.12,0,0,1,3.6-27.11c.35-1,.61-2.06,1-3.09s.81-2.09,1.2-3.18,1-2.13,1.43-3.25,1.1-2.17,1.63-3.32a85.83,85.83,0,0,1,21.57-26.71,91.48,91.48,0,0,1,17-11,90,90,0,0,1,20.9-7.22c.94-.27,1.91-.36,2.88-.54s1.93-.38,2.92-.52,2-.22,3-.35l1.51-.2,1.51-.09c1-.06,2-.14,3.07-.23s2,0,3.07-.06c2.07-.13,4.11.07,6.21.08a92.19,92.19,0,0,1,12.55,1.52l1.59.27c.53.08,1,.25,1.57.37,1,.25,2.1.5,3.17.73l3.14.92c.52.15,1.06.28,1.59.45l1.55.55a96.39,96.39,0,0,1,24.39,12.29q1.42,1.05,2.88,2.07c.95.71,1.85,1.48,2.79,2.21.47.37,1,.72,1.41,1.11l1.34,1.19,1.35,1.18a17.32,17.32,0,0,1,1.34,1.22c.86.84,1.73,1.68,2.61,2.51s1.65,1.77,2.5,2.65c.42.44.86.87,1.26,1.33l1.18,1.4,1.2,1.39c.41.46.81.93,1.17,1.42a103.16,103.16,0,0,1,22.12,55.92,125.59,125.59,0,0,1,.16,15.88c-.05,1.33-.25,2.63-.35,4l-.17,2-.3,2c-.21,1.31-.34,2.64-.58,3.95l-.78,3.92a16.17,16.17,0,0,1-.44,1.95l-.49,1.94-.47,1.95c-.17.65-.39,1.28-.58,1.92-.4,1.27-.74,2.57-1.17,3.85l-1.36,3.79a18.72,18.72,0,0,1-.73,1.88l-.77,1.86-.77,1.88c-.26.62-.57,1.22-.86,1.83-.59,1.21-1.12,2.46-1.74,3.66L476,393.21a19.09,19.09,0,0,1-1,1.76l-1,1.75-1,1.76c-.36.57-.75,1.12-1.13,1.69-.76,1.12-1.47,2.29-2.27,3.39L467,406.85a19.27,19.27,0,0,1-1.25,1.61L464.5,410l-1.28,1.59c-.44.53-.91,1-1.36,1.53-.92,1-1.8,2-2.74,3l-2.87,2.91a115.25,115.25,0,0,1-26.06,19.25l-1.76,1c-.6.31-1.21.58-1.81.88L423,442l-3.7,1.57c-.61.25-1.22.56-1.85.78l-1.88.68a117.77,117.77,0,0,1-15.26,4.58c-2.6.48-5.17,1.15-7.8,1.45-1.3.19-2.6.42-3.91.59l-3.93.39-2,.2-2,.09-3.92.2c-1.3,0-2.6,0-3.89,0s-2.6.06-3.88-.06a123.15,123.15,0,0,1-29.74-4.8,126.5,126.5,0,0,1-64.94-44.87c-1.14-1.58-2.35-3.07-3.4-4.63l-3.1-4.63-2.77-4.6c-.92-1.51-1.66-3.07-2.49-4.56a125,125,0,0,1-7.51-17.15,126.62,126.62,0,0,1-6.3-25.81c-.52-3.06-.64-5.45-.81-7.05s-.23-2.44-.23-2.44" transform="translate(0 -9.04)"/><line class="cls-3" x1="77.94" y1="323.41" x2="77.94" y2="38.35"/><path class="cls-4" d="M266,331.44A18.43,18.43,0,1,1,247.55,313,18.43,18.43,0,0,1,266,331.44Z" transform="translate(0 -9.04)"/><path class="cls-4" d="M209.93,331.44A18.43,18.43,0,1,1,191.51,313,18.43,18.43,0,0,1,209.93,331.44Z" transform="translate(0 -9.04)"/><path class="cls-4" d="M153.34,331.44A18.43,18.43,0,1,1,134.91,313,18.43,18.43,0,0,1,153.34,331.44Z" transform="translate(0 -9.04)"/><path class="cls-4" d="M96.37,331.44A18.43,18.43,0,1,1,77.94,313,18.43,18.43,0,0,1,96.37,331.44Z" transform="translate(0 -9.04)"/><path class="cls-4" d="M116.29,47.39A38.35,38.35,0,1,1,77.94,9,38.35,38.35,0,0,1,116.29,47.39Z" transform="translate(0 -9.04)"/><text class="cls-5" transform="translate(245.88 327.06)">I</text><text class="cls-5" transform="translate(188.16 327.06)">II</text><text class="cls-5" transform="translate(129.89 327.06)">III</text><text class="cls-5" transform="translate(72.37 327.06)">IV</text><text class="cls-6" transform="translate(3 319.18)"><tspan class="cls-7">M</tspan><tspan x="8.16" y="0">iles</tspan><tspan class="cls-8" x="21.83" y="0">t</tspan><tspan x="25.08" y="0">ones</tspan></text><text class="cls-5" transform="translate(60.67 38.35)">FINAL<tspan class="cls-9"><tspan class="cls-10" x="-6.39" y="10.8">P</tspan><tspan class="cls-11" x="-1.75" y="10.8">r</tspan><tspan x="1.1" y="10.8">ese</tspan><tspan class="cls-12" x="13.69" y="10.8">n</tspan><tspan x="18.64" y="10.8">t</tspan><tspan class="cls-13" x="21.62" y="10.8">a</tspan><tspan x="25.92" y="10.8">tion</tspan></tspan></text><path class="cls-14" d="M302.82,433.14a15.59,15.59,0,1,1,0-22.05A15.61,15.61,0,0,1,302.82,433.14Z" transform="translate(0 -9.04)"/><text class="cls-5" transform="translate(285.75 414.1) rotate(45)">4</text><text class="cls-15" transform="translate(256.81 413.59) rotate(45)">thin<tspan class="cls-16" x="13.4" y="0">k</tspan><tspan x="17.29" y="0">ing aloud</tspan></text><path class="cls-14" d="M263.15,473.14a15.59,15.59,0,1,1,0-22.05A15.6,15.6,0,0,1,263.15,473.14Z" transform="translate(0 -9.04)"/><text class="cls-5" transform="translate(246.08 454.1) rotate(45)">9</text><text class="cls-15" transform="translate(211.25 447.69) rotate(45)">heu<tspan class="cls-17" x="12.86" y="0">r</tspan><tspan x="15.5" y="0">istic e</tspan><tspan class="cls-18" x="34.35" y="0">v</tspan><tspan x="38.17" y="0">alu</tspan><tspan class="cls-18" x="48.32" y="0">a</tspan><tspan x="52.14" y="0">tion</tspan></text><path class="cls-14" d="M223.33,512.86a15.58,15.58,0,1,1,0-22A15.58,15.58,0,0,1,223.33,512.86Z" transform="translate(0 -9.04)"/><text class="cls-5" transform="translate(203.1 490.6) rotate(45)">14</text><text class="cls-15" transform="translate(170.39 486.37) rotate(45)">understanding users<tspan class="cls-19" x="0.04" y="9.6">e</tspan><tspan class="cls-20" x="4.03" y="9.6">xpe</tspan><tspan class="cls-17" x="16.29" y="9.6">r</tspan><tspan x="18.94" y="9.6">ime</tspan><tspan class="cls-21" x="31.49" y="9.6">n</tspan><tspan x="35.9" y="9.6">tal desi</tspan><tspan class="cls-22" x="59.55" y="9.6">g</tspan><tspan x="63.97" y="9.6">n</tspan></text><path class="cls-14" d="M183.58,552.86a15.58,15.58,0,1,1,0-22A15.58,15.58,0,0,1,183.58,552.86Z" transform="translate(0 -9.04)"/><text class="cls-5" transform="translate(163.22 530.54) rotate(45)">18</text><text class="cls-15" transform="translate(139.19 534.93) rotate(45)"><tspan class="cls-23">e</tspan><tspan class="cls-24" x="3.98" y="0">xpe</tspan><tspan class="cls-25" x="16.25" y="0">r</tspan><tspan x="18.9" y="0">ime</tspan><tspan class="cls-21" x="31.45" y="0">n</tspan><tspan x="35.86" y="0">tal </tspan><tspan class="cls-26" x="-0.26" y="9.6">r</tspan><tspan x="2.27" y="9.6">equi</tspan><tspan class="cls-26" x="17.06" y="9.6">r</tspan><tspan x="19.6" y="9.6">eme</tspan><tspan class="cls-21" x="34.29" y="9.6">n</tspan><tspan x="38.7" y="9.6">ts</tspan></text><path class="cls-27" d="M587.67,157.41a15.58,15.58,0,1,1,0-22A15.59,15.59,0,0,1,587.67,157.41Z" transform="translate(0 -9.04)"/><text class="cls-5" transform="translate(567.98 135) rotate(45)">16</text><text class="cls-15" transform="translate(537.88 134.08) rotate(45)">model i<tspan class="cls-18" x="25.04" y="0">n</tspan><tspan class="cls-22" x="29.45" y="0">t</tspan><tspan x="32.05" y="0">e</tspan><tspan class="cls-28" x="36.06" y="0">r</tspan><tspan x="38.63" y="0">a</tspan><tspan class="cls-29" x="42.49" y="0">c</tspan><tspan x="46.18" y="0">tion</tspan></text><path class="cls-27" d="M548,197.41a15.59,15.59,0,1,1,0-22A15.6,15.6,0,0,1,548,197.41Z" transform="translate(0 -9.04)"/><text class="cls-5" transform="translate(527.98 174.99) rotate(45)">12</text><text class="cls-15" transform="translate(501.31 177.18) rotate(45)">s<tspan class="cls-30" x="3.17" y="0">t</tspan><tspan x="5.89" y="0">yle p</tspan><tspan class="cls-26" x="21.8" y="0">r</tspan><tspan x="24.34" y="0">o</tspan><tspan class="cls-22" x="28.73" y="0">t</tspan><tspan x="31.33" y="0">o</tspan><tspan class="cls-31" x="35.72" y="0">t</tspan><tspan x="38.44" y="0">ype</tspan></text><path class="cls-27" d="M508.19,237.14a15.59,15.59,0,1,1,0-22A15.59,15.59,0,0,1,508.19,237.14Z" transform="translate(0 -9.04)"/><text class="cls-5" transform="translate(491.11 218.1) rotate(45)">7</text><path class="cls-14" d="M93.54,193A15.6,15.6,0,1,1,78,177.39,15.6,15.6,0,0,1,93.54,193Z" transform="translate(0 -9.04)"/><text class="cls-5" transform="translate(69.76 188.9)">19</text><text class="cls-15" transform="translate(456.75 212.16) rotate(45)"><tspan class="cls-26">r</tspan><tspan x="2.54" y="0">edesi</tspan><tspan class="cls-22" x="20.1" y="0">g</tspan><tspan x="24.53" y="0">n p</tspan><tspan class="cls-26" x="35.21" y="0">r</tspan><tspan x="37.75" y="0">o</tspan><tspan class="cls-22" x="42.14" y="0">t</tspan><tspan x="44.74" y="0">o</tspan><tspan class="cls-30" x="49.13" y="0">t</tspan><tspan x="51.85" y="0">ype</tspan></text><path class="cls-27" d="M468.44,277.14a15.59,15.59,0,1,1,0-22A15.59,15.59,0,0,1,468.44,277.14Z" transform="translate(0 -9.04)"/><text class="cls-5" transform="translate(451.36 258.1) rotate(45)">2</text><text class="cls-15" transform="translate(415.95 251.12) rotate(45)">user goal<tspan class="cls-32" x="30.5" y="0">s</tspan><tspan x="33.58" y="0">, personas</tspan><tspan x="10.77" y="9.6">and s</tspan><tspan class="cls-22" x="28.44" y="9.6">c</tspan><tspan x="31.98" y="9.6">ena</tspan><tspan class="cls-17" x="44.28" y="9.6">r</tspan><tspan x="46.93" y="9.6">ios</tspan></text><path class="cls-33" d="M474,401.33a15.59,15.59,0,1,1-22.05,0A15.59,15.59,0,0,1,474,401.33Z" transform="translate(0 -9.04)"/><text class="cls-5" transform="translate(464.01 409.37) rotate(-45)">3</text><text class="cls-15" transform="translate(461.38 440.41) rotate(-45)">paper p<tspan class="cls-26" x="25.83" y="0">r</tspan><tspan x="28.37" y="0">o</tspan><tspan class="cls-22" x="32.76" y="0">t</tspan><tspan x="35.36" y="0">o</tspan><tspan class="cls-30" x="39.75" y="0">t</tspan><tspan x="42.47" y="0">ype</tspan></text><path class="cls-33" d="M514,441A15.59,15.59,0,1,1,492,441,15.59,15.59,0,0,1,514,441Z" transform="translate(0 -9.04)"/><text class="cls-5" transform="translate(504.01 449.03) rotate(-45)">8</text><text class="cls-15" transform="translate(496.29 485.18) rotate(-45)"><tspan class="cls-34">H</tspan><tspan x="5.3" y="0">i</tspan><tspan class="cls-35" x="7.17" y="0">F</tspan><tspan x="10.86" y="0">i paper p</tspan><tspan class="cls-26" x="40.26" y="0">r</tspan><tspan x="42.79" y="0">o</tspan><tspan class="cls-22" x="47.18" y="0">t</tspan><tspan x="49.79" y="0">o</tspan><tspan class="cls-30" x="54.18" y="0">t</tspan><tspan x="56.9" y="0">ype</tspan></text><path class="cls-33" d="M553.74,480.82a15.59,15.59,0,1,1-22,0A15.61,15.61,0,0,1,553.74,480.82Z" transform="translate(0 -9.04)"/><text class="cls-5" transform="translate(540.76 491.83) rotate(-45)">13</text><text class="cls-15" transform="translate(541.18 519.84) rotate(-45)">HTML p<tspan class="cls-26" x="25.65" y="0">r</tspan><tspan x="28.18" y="0">o</tspan><tspan class="cls-22" x="32.58" y="0">t</tspan><tspan x="35.18" y="0">o</tspan><tspan class="cls-30" x="39.57" y="0">t</tspan><tspan x="42.29" y="0">ype</tspan></text><path class="cls-33" d="M593.74,520.57a15.59,15.59,0,1,1-22,0A15.61,15.61,0,0,1,593.74,520.57Z" transform="translate(0 -9.04)"/><text class="cls-5" transform="translate(581.2 531.52) rotate(-45)">17</text><text class="cls-15" transform="translate(576.08 564.69) rotate(-45)"><tspan class="cls-34">H</tspan><tspan x="5.3" y="0">i</tspan><tspan class="cls-35" x="7.17" y="0">F</tspan><tspan x="10.86" y="0">i HTML p</tspan><tspan class="cls-26" x="40.07" y="0">r</tspan><tspan x="42.61" y="0">o</tspan><tspan class="cls-22" x="47" y="0">t</tspan><tspan x="49.6" y="0">o</tspan><tspan class="cls-30" x="53.99" y="0">t</tspan><tspan x="56.71" y="0">ype</tspan></text><path class="cls-36" d="M219.82,134.91a15.59,15.59,0,1,1-22,0A15.58,15.58,0,0,1,219.82,134.91Z" transform="translate(0 -9.04)"/><text class="cls-5" transform="translate(206.78 145.99) rotate(-45)">15</text><text class="cls-15" transform="translate(210.9 172.1) rotate(-45)"><tspan class="cls-26">r</tspan><tspan x="2.54" y="0">efle</tspan><tspan class="cls-29" x="14.74" y="0">c</tspan><tspan class="cls-24" x="18.42" y="0">tions and</tspan><tspan x="-0.82" y="9.6">aiming </tspan><tspan class="cls-37" x="24.06" y="9.6">f</tspan><tspan x="26.3" y="9.6">o</tspan><tspan class="cls-38" x="30.69" y="9.6">r</tspan><tspan class="cls-21" x="33.5" y="9.6">w</tspan><tspan x="39.36" y="9.6">a</tspan><tspan class="cls-26" x="43.22" y="9.6">r</tspan><tspan x="45.75" y="9.6">d</tspan></text><path class="cls-36" d="M261.63,174.57a15.59,15.59,0,1,1-22,0A15.59,15.59,0,0,1,261.63,174.57Z" transform="translate(0 -9.04)"/><text class="cls-5" transform="translate(248.53 185.15) rotate(-45)">11</text><text class="cls-15" transform="translate(250.4 212.26) rotate(-45)">i<tspan class="cls-18" x="1.87" y="0">n</tspan><tspan class="cls-22" x="6.28" y="0">t</tspan><tspan x="8.88" y="0">e</tspan><tspan class="cls-28" x="12.89" y="0">r</tspan><tspan x="15.46" y="0">a</tspan><tspan class="cls-29" x="19.32" y="0">c</tspan><tspan x="23.01" y="0">tion and</tspan><tspan x="-4.65" y="9.6">desi</tspan><tspan class="cls-22" x="8.91" y="9.6">g</tspan><tspan x="13.33" y="9.6">n f</tspan><tspan class="cls-28" x="21.8" y="9.6">r</tspan><tspan x="24.38" y="9.6">ame</tspan><tspan class="cls-26" x="38.91" y="9.6">w</tspan><tspan x="44.72" y="9.6">o</tspan><tspan class="cls-17" x="49.11" y="9.6">r</tspan><tspan x="51.76" y="9.6">k</tspan></text><path class="cls-36" d="M301.36,214.39a15.59,15.59,0,1,1-22.05,0A15.61,15.61,0,0,1,301.36,214.39Z" transform="translate(0 -9.04)"/><text class="cls-5" transform="translate(291.36 222.43) rotate(-45)">6</text><text class="cls-15" transform="translate(279.15 263.06) rotate(-45)">use case<tspan class="cls-32" x="27.9" y="0">s</tspan><tspan x="30.98" y="0">, usabili</tspan><tspan class="cls-30" x="55.95" y="0">t</tspan><tspan x="58.67" y="0">y goals </tspan><tspan x="17.41" y="9.6">and p</tspan><tspan class="cls-17" x="36.46" y="9.6">r</tspan><tspan x="39.11" y="9.6">inciples</tspan></text><path class="cls-36" d="M341.36,254.14a15.59,15.59,0,1,1-22.05,0A15.61,15.61,0,0,1,341.36,254.14Z" transform="translate(0 -9.04)"/><text class="cls-5" transform="translate(331.36 262.18) rotate(-45)">1</text><text class="cls-15" transform="translate(325.82 299.96) rotate(-45)">understanding users</text><text class="cls-15" transform="translate(45.15 181.8)">final<tspan x="-20.78" y="9.6">e</tspan><tspan class="cls-18" x="-16.78" y="9.6">v</tspan><tspan class="cls-39" x="-12.96" y="9.6">alu</tspan><tspan class="cls-40" x="-2.81" y="9.6">a</tspan><tspan x="1.02" y="9.6">tion</tspan></text><path class="cls-41" d="M388.07,41" transform="translate(0 -9.04)"/><path class="cls-41" d="M693,322" transform="translate(0 -9.04)"/><path class="cls-41" d="M106.21,324.45" transform="translate(0 -9.04)"/><path class="cls-41" d="M389.68,41" transform="translate(0 -9.04)"/><text class="cls-42" transform="translate(118.15 183.93) rotate(-44.24)">ANA<tspan class="cls-43" x="89.35" y="0">L</tspan><tspan class="cls-44" x="110.52" y="0">Y</tspan><tspan class="cls-45" x="136.73" y="0">SIS</tspan></text><text class="cls-46" transform="translate(544.68 66.23) rotate(44.71)">DESIGN</text><text class="cls-47" transform="matrix(0.71, 0.7, -0.7, 0.71, 25.6, 499.06)">E<tspan class="cls-48" x="25.24" y="0">V</tspan><tspan class="cls-49" x="50.47" y="0">A</tspan><tspan class="cls-50" x="79.7" y="0">L</tspan><tspan class="cls-51" x="102.6" y="0">U</tspan><tspan class="cls-52" x="131.87" y="0">A</tspan><tspan class="cls-53" x="158.33" y="0">TION</tspan></text><text class="cls-46" transform="translate(551.38 644.48) rotate(-43.2)">IMPLEMEN<tspan class="cls-54"><tspan x="33.35" y="43.2">T</tspan><tspan class="cls-55" x="55.75" y="43.2">A</tspan><tspan class="cls-56" x="82.21" y="43.2">TION</tspan></tspan></text><path class="cls-57" d="M433.71,343a42.53,42.53,0,1,1-42.53-42.53A42.53,42.53,0,0,1,433.71,343Z" transform="translate(0 -9.04)"/><text class="cls-5" transform="translate(376.57 332.5)">PREP</text><text class="cls-15" transform="translate(375.43 343.38)">get <tspan class="cls-26" x="12.82" y="0">r</tspan><tspan x="15.36" y="0">eady</tspan></text><path class="cls-58" d="M396.38,379.11c-103.38,7.67-88.6-15-92-48.81" transform="translate(0 -9.04)"/><path class="cls-57" d="M325.88,371.89" transform="translate(0 -9.04)"/><polyline class="cls-59" points="295.57 328.4 304.44 323.4 313.16 328.56 313.21 323.44 304.44 318.25 295.57 323.25"/><polyline class="cls-59" points="339.38 378.93 335.45 369.54 341.58 361.48 336.5 360.83 330.33 368.94 334.27 378.34"/><polyline class="cls-59" points="379.02 452.62 374.02 443.74 379.18 435.03 374.06 434.98 368.88 443.74 373.88 452.62"/><polyline class="cls-59" points="379.02 508.9 374.02 500.02 379.18 491.31 374.06 491.26 368.88 500.02 373.88 508.9"/><polyline class="cls-59" points="379.02 565.65 374.02 556.77 379.18 548.06 374.06 548.01 368.88 556.77 373.88 565.65"/><polyline class="cls-59" points="379.02 622.02 374.02 613.15 379.18 604.44 374.06 604.38 368.88 613.15 373.88 622.02"/><polyline class="cls-59" points="386.23 220.85 391.23 229.72 386.07 238.44 391.19 238.49 396.38 229.72 391.38 220.85"/><polyline class="cls-59" points="386.23 164.56 391.23 173.44 386.07 182.15 391.19 182.21 396.38 173.44 391.38 164.56"/><polyline class="cls-59" points="386.23 107.81 391.23 116.69 386.07 125.4 391.19 125.46 396.38 116.69 391.38 107.81"/><polyline class="cls-59" points="386.23 51.44 391.23 60.31 386.07 69.03 391.19 69.08 396.38 60.31 391.38 51.44"/><polyline class="cls-59" points="498.26 325.5 489.38 330.5 480.67 325.35 480.62 330.47 489.38 335.65 498.26 330.65"/><polyline class="cls-59" points="554.54 325.5 545.66 330.5 536.95 325.35 536.9 330.47 545.66 335.65 554.54 330.65"/><polyline class="cls-59" points="611.29 325.5 602.41 330.5 593.7 325.35 593.65 330.47 602.41 335.65 611.29 330.65"/><polyline class="cls-59" points="667.66 325.5 658.79 330.5 650.08 325.35 650.02 330.47 658.79 335.65 667.66 330.65"/></svg>